%TF.GenerationSoftware,Altium Limited,Altium Designer,26.9.1 (10)*%
G04 Layer_Color=65535*
G04 Board_Origin=0|0*
%FSLAX45Y45*%
%MOMM*%
%TF.SameCoordinates,BB43777D-D1B5-492F-AFD8-DD2008C5DB50*%
%TF.FilePolarity,Positive*%
%TF.FileFunction,Legend,Top*%
%TF.Part,Single*%
G01*
G75*
%TA.AperFunction,NonConductor*%
%ADD41C,0.25000*%
%ADD42C,0.25400*%
%ADD43C,0.20000*%
%ADD44C,0.17500*%
%ADD45C,0.30000*%
D41*
X9317500Y9400000D02*
G03*
X9317500Y9400000I-12500J0D01*
G01*
X10377500Y9130000D02*
G03*
X10377500Y9130000I-12500J0D01*
G01*
X12417500Y8782500D02*
G03*
X12417500Y8782500I-12500J0D01*
G01*
X12166500Y7925000D02*
G03*
X12166500Y7925000I-12500J0D01*
G01*
D42*
X10031788Y7181328D02*
G03*
X10031788Y7181328I-10270J0D01*
G01*
D43*
X9385000Y9457502D02*
Y9489999D01*
X9417502D01*
X9385000Y9060002D02*
Y9092499D01*
Y9060002D02*
X9417502D01*
X9782500D02*
X9815002D01*
Y9092499D01*
Y9457502D02*
Y9489999D01*
X9782500D02*
X9815002D01*
X10430002Y8405002D02*
X10472501D01*
X10430002D02*
Y8447502D01*
X11127501Y8405002D02*
X11170001D01*
Y8447502D01*
Y9102501D02*
Y9145001D01*
X11127501D02*
X11170001D01*
X10430002D02*
X10472501D01*
X10430002Y9102501D02*
Y9145001D01*
X12455002Y8510499D02*
X12722499D01*
X12455002Y9319499D02*
X12722499D01*
X12455002Y9272499D02*
Y9319499D01*
Y8510499D02*
Y8557499D01*
X11478753Y7770749D02*
X12129252D01*
X11478753Y7420249D02*
Y7770749D01*
Y7420249D02*
X12129252D01*
Y7770749D01*
X9701926Y7935717D02*
Y8024998D01*
Y7935717D02*
X9824999D01*
D44*
X11199998Y9701500D02*
X11780002D01*
X11900002Y9581500D01*
Y9441500D02*
Y9581500D01*
X11780002Y9321500D02*
X11900002Y9441500D01*
X11199998Y9321500D02*
X11780002D01*
X11199998D02*
Y9701500D01*
X11434714Y8485287D02*
X11560002D01*
Y8614715D01*
X11434714D02*
X11560002D01*
X12535286Y7334717D02*
Y7460000D01*
X12664714D01*
Y7334717D02*
Y7460000D01*
D45*
X9824999Y6774998D02*
Y7149998D01*
X9949998Y7275002D01*
X10899999D01*
X11025002Y7149998D01*
Y6774998D02*
Y7149998D01*
%TF.MD5,d4829cf0981e454add1bbd9513e8fc11*%
M02*
