%TF.GenerationSoftware,Altium Limited,Altium Designer,26.9.1 (10)*%
G04 Layer_Color=2752767*
G04 Board_Origin=0|0*
%FSLAX45Y45*%
%MOMM*%
%TF.SameCoordinates,BB43777D-D1B5-492F-AFD8-DD2008C5DB50*%
%TF.FilePolarity,Positive*%
%TF.FileFunction,Drawing*%
%TF.Part,Single*%
G01*
G75*
%TA.AperFunction,NonConductor*%
%ADD59C,0.12700*%
%ADD60C,0.16933*%
D59*
X9600001Y9849201D02*
X9625401Y9874601D01*
X9650801D01*
X9625401Y9900001D01*
X9650801Y9925401D01*
X9625401D01*
X9600001Y9950801D01*
X9574601Y9925401D01*
X9549201D01*
X9574601Y9900001D01*
X9549201Y9874601D01*
X9574601D01*
X9600001Y9849201D01*
X11753200Y9460702D02*
Y9562302D01*
X11854800D01*
Y9460702D01*
X11753200D01*
X11245200Y9359102D02*
Y9460702D01*
X11346800D01*
Y9359102D01*
X11245200D01*
Y9562302D02*
Y9663902D01*
X11346800D01*
Y9562302D01*
X11245200D01*
X12600000Y9849201D02*
X12625400Y9874601D01*
X12650800D01*
X12625400Y9900001D01*
X12650800Y9925401D01*
X12625400D01*
X12600000Y9950801D01*
X12574600Y9925401D01*
X12549200D01*
X12574600Y9900001D01*
X12549200Y9874601D01*
X12574600D01*
X12600000Y9849201D01*
Y6849201D02*
X12625400Y6874601D01*
X12650800D01*
X12625400Y6900001D01*
X12650800Y6925401D01*
X12625400D01*
X12600000Y6950801D01*
X12574600Y6925401D01*
X12549200D01*
X12574600Y6900001D01*
X12549200Y6874601D01*
X12574600D01*
X12600000Y6849201D01*
X9600001D02*
X9625401Y6874601D01*
X9650801D01*
X9625401Y6900001D01*
X9650801Y6925401D01*
X9625401D01*
X9600001Y6950801D01*
X9574601Y6925401D01*
X9549201D01*
X9574601Y6900001D01*
X9549201Y6874601D01*
X9574601D01*
X9600001Y6849201D01*
X10269220Y9110980D02*
X10218420Y9212580D01*
X10320020D01*
X10269220Y9110980D01*
X9916160Y9099199D02*
X9865360Y9200799D01*
X9966960D01*
X9916160Y9099199D01*
X12237842Y8994201D02*
X12187042Y9095801D01*
X12288642D01*
X12237842Y8994201D01*
X10972800Y8074660D02*
X10922000Y8176260D01*
X11023600D01*
X10972800Y8074660D01*
X11724640Y8686800D02*
X11673840Y8788400D01*
X11775440D01*
X11724640Y8686800D01*
X9611360Y8388142D02*
X9560560Y8489742D01*
X9662160D01*
X9611360Y8388142D01*
X10040620Y9177020D02*
X9989820Y9278620D01*
X10091420D01*
X10040620Y9177020D01*
X9527540Y10121900D02*
X9476740Y10223500D01*
X9578340D01*
X9527540Y10121900D01*
X11376660Y9697720D02*
X11325860Y9799320D01*
X11427460D01*
X11376660Y9697720D01*
X10208260Y8369300D02*
X10157460Y8470900D01*
X10259060D01*
X10208260Y8369300D01*
X11990070Y9076690D02*
X11939270Y9178290D01*
X12040870D01*
X11990070Y9076690D01*
X11755120Y9311640D02*
X11704320Y9413240D01*
X11805920D01*
X11755120Y9311640D01*
X11031220Y9237980D02*
X10980420Y9339580D01*
X11082020D01*
X11031220Y9237980D01*
X10408920Y9128760D02*
X10358120Y9230360D01*
X10459720D01*
X10408920Y9128760D01*
X10144760Y8954440D02*
X10093960Y9056040D01*
X10195560D01*
X10144760Y8954440D01*
X10434320Y8323580D02*
X10383520Y8425180D01*
X10485120D01*
X10434320Y8323580D01*
X9428480Y8877300D02*
X9377680Y8978900D01*
X9479280D01*
X9428480Y8877300D01*
X9649460Y7940040D02*
X9598660Y8041640D01*
X9700260D01*
X9649460Y7940040D01*
X10012680Y8663940D02*
X9961880Y8765540D01*
X10063480D01*
X10012680Y8663940D01*
X9924999Y9493199D02*
X9874199Y9594799D01*
X9975799D01*
X9924999Y9493199D01*
X10144760Y9712960D02*
X10093960Y9814560D01*
X10195560D01*
X10144760Y9712960D01*
X12372340Y8757920D02*
X12321540Y8859520D01*
X12423140D01*
X12372340Y8757920D01*
X11298560D02*
X11247760Y8859520D01*
X11349360D01*
X11298560Y8757920D01*
D60*
X9595800Y9220002D02*
G03*
X9595800Y9220002I-50800J0D01*
G01*
X9705802D02*
G03*
X9705802Y9220002I-50800J0D01*
G01*
X9595800Y9329999D02*
G03*
X9595800Y9329999I-50800J0D01*
G01*
X9705802D02*
G03*
X9705802Y9329999I-50800J0D01*
G01*
X11070798Y8665002D02*
G03*
X11070798Y8665002I-50800J0D01*
G01*
Y8554999D02*
G03*
X11070798Y8554999I-50800J0D01*
G01*
Y8994999D02*
G03*
X11070798Y8994999I-50800J0D01*
G01*
X10960801D02*
G03*
X10960801Y8994999I-50800J0D01*
G01*
X11070798Y8885001D02*
G03*
X11070798Y8885001I-50800J0D01*
G01*
X10960801D02*
G03*
X10960801Y8885001I-50800J0D01*
G01*
X10850799Y8994999D02*
G03*
X10850799Y8994999I-50800J0D01*
G01*
Y8774999D02*
G03*
X10850799Y8774999I-50800J0D01*
G01*
Y8885001D02*
G03*
X10850799Y8885001I-50800J0D01*
G01*
X11070798Y8774999D02*
G03*
X11070798Y8774999I-50800J0D01*
G01*
X10960801Y8665002D02*
G03*
X10960801Y8665002I-50800J0D01*
G01*
Y8554999D02*
G03*
X10960801Y8554999I-50800J0D01*
G01*
Y8774999D02*
G03*
X10960801Y8774999I-50800J0D01*
G01*
X10850799Y8665002D02*
G03*
X10850799Y8665002I-50800J0D01*
G01*
Y8554999D02*
G03*
X10850799Y8554999I-50800J0D01*
G01*
X10630799Y8994999D02*
G03*
X10630799Y8994999I-50800J0D01*
G01*
X10740801Y8885001D02*
G03*
X10740801Y8885001I-50800J0D01*
G01*
Y8994999D02*
G03*
X10740801Y8994999I-50800J0D01*
G01*
Y8774999D02*
G03*
X10740801Y8774999I-50800J0D01*
G01*
X10630799D02*
G03*
X10630799Y8774999I-50800J0D01*
G01*
Y8885001D02*
G03*
X10630799Y8885001I-50800J0D01*
G01*
X10740801Y8665002D02*
G03*
X10740801Y8665002I-50800J0D01*
G01*
X10630799Y8554999D02*
G03*
X10630799Y8554999I-50800J0D01*
G01*
X10740801D02*
G03*
X10740801Y8554999I-50800J0D01*
G01*
X10630799Y8665002D02*
G03*
X10630799Y8665002I-50800J0D01*
G01*
%TF.MD5,8cf4348534fc3d4815ae0aeed9865b95*%
M02*
