%TF.GenerationSoftware,Altium Limited,Altium Designer,26.9.1 (10)*%
G04 Layer_Color=0*
G04 Board_Origin=0|0*
%FSLAX45Y45*%
%MOMM*%
%TF.SameCoordinates,BB43777D-D1B5-492F-AFD8-DD2008C5DB50*%
%TF.FilePolarity,Positive*%
%TF.FileFunction,Plated,1,4,PTH,Drill*%
%TF.Part,Single*%
G01*
G75*
%TA.AperFunction,ViaDrill,NotFilled*%
%ADD56C,0.71120*%
%ADD57C,0.20000*%
D56*
X10269220Y9161780D02*
D03*
X9916160Y9149999D02*
D03*
X12237842Y9045001D02*
D03*
X10972800Y8125460D02*
D03*
X11724640Y8737600D02*
D03*
X9611360Y8438942D02*
D03*
X10040620Y9227820D02*
D03*
X9527540Y10172700D02*
D03*
X11376660Y9748520D02*
D03*
X10208260Y8420100D02*
D03*
X11990070Y9127490D02*
D03*
X11755120Y9362440D02*
D03*
X11031220Y9288780D02*
D03*
X10408920Y9179560D02*
D03*
X10144760Y9005240D02*
D03*
X10434320Y8374380D02*
D03*
X9428480Y8928100D02*
D03*
X9649460Y7990840D02*
D03*
X10012680Y8714740D02*
D03*
X9924999Y9543999D02*
D03*
X10144760Y9763760D02*
D03*
X12372340Y8808720D02*
D03*
X11298560D02*
D03*
D57*
X9545000Y9220002D02*
D03*
X9655002D02*
D03*
X9545000Y9329999D02*
D03*
X9655002D02*
D03*
X11019998Y8665002D02*
D03*
Y8554999D02*
D03*
Y8994999D02*
D03*
X10910001D02*
D03*
X11019998Y8885001D02*
D03*
X10910001D02*
D03*
X10799999Y8994999D02*
D03*
Y8774999D02*
D03*
Y8885001D02*
D03*
X11019998Y8774999D02*
D03*
X10910001Y8665002D02*
D03*
Y8554999D02*
D03*
Y8774999D02*
D03*
X10799999Y8665002D02*
D03*
Y8554999D02*
D03*
X10579999Y8994999D02*
D03*
X10690001Y8885001D02*
D03*
Y8994999D02*
D03*
Y8774999D02*
D03*
X10579999D02*
D03*
Y8885001D02*
D03*
X10690001Y8665002D02*
D03*
X10579999Y8554999D02*
D03*
X10690001D02*
D03*
X10579999Y8665002D02*
D03*
%TF.MD5,b19a8023ee8237c8783005ed173392a3*%
M02*
