%TF.GenerationSoftware,Altium Limited,Altium Designer,26.9.1 (10)*%
G04 Layer_Physical_Order=1*
G04 Layer_Color=255*
G04 Board_Origin=0|0*
%FSLAX45Y45*%
%MOMM*%
%TF.SameCoordinates,BB43777D-D1B5-492F-AFD8-DD2008C5DB50*%
%TF.FilePolarity,Positive*%
%TF.FileFunction,Copper,L1,Top,Signal*%
%TF.Part,Single*%
G01*
G75*
%TA.AperFunction,SMDPad,CuDef*%
G04:AMPARAMS|DCode=10|XSize=0.6mm|YSize=0.7mm|CornerRadius=0.075mm|HoleSize=0mm|Usage=FLASHONLY|Rotation=0.000|XOffset=0mm|YOffset=0mm|HoleType=Round|Shape=RoundedRectangle|*
%AMROUNDEDRECTD10*
21,1,0.60000,0.55000,0,0,0.0*
21,1,0.45000,0.70000,0,0,0.0*
1,1,0.15000,0.22500,-0.27500*
1,1,0.15000,-0.22500,-0.27500*
1,1,0.15000,-0.22500,0.27500*
1,1,0.15000,0.22500,0.27500*
%
%ADD10ROUNDEDRECTD10*%
%TA.AperFunction,BGAPad,CuDef*%
%ADD11C,0.86300*%
%TA.AperFunction,SMDPad,CuDef*%
%ADD12O,0.80000X0.25000*%
G04:AMPARAMS|DCode=13|XSize=0.8mm|YSize=1mm|CornerRadius=0.1mm|HoleSize=0mm|Usage=FLASHONLY|Rotation=0.000|XOffset=0mm|YOffset=0mm|HoleType=Round|Shape=RoundedRectangle|*
%AMROUNDEDRECTD13*
21,1,0.80000,0.80000,0,0,0.0*
21,1,0.60000,1.00000,0,0,0.0*
1,1,0.20000,0.30000,-0.40000*
1,1,0.20000,-0.30000,-0.40000*
1,1,0.20000,-0.30000,0.40000*
1,1,0.20000,0.30000,0.40000*
%
%ADD13ROUNDEDRECTD13*%
G04:AMPARAMS|DCode=14|XSize=1.4mm|YSize=1.7mm|CornerRadius=0.175mm|HoleSize=0mm|Usage=FLASHONLY|Rotation=90.000|XOffset=0mm|YOffset=0mm|HoleType=Round|Shape=RoundedRectangle|*
%AMROUNDEDRECTD14*
21,1,1.40000,1.35000,0,0,90.0*
21,1,1.05000,1.70000,0,0,90.0*
1,1,0.35000,0.67500,0.52500*
1,1,0.35000,0.67500,-0.52500*
1,1,0.35000,-0.67500,-0.52500*
1,1,0.35000,-0.67500,0.52500*
%
%ADD14ROUNDEDRECTD14*%
%ADD15R,1.25000X1.25000*%
G04:AMPARAMS|DCode=16|XSize=0.6mm|YSize=0.7mm|CornerRadius=0.075mm|HoleSize=0mm|Usage=FLASHONLY|Rotation=90.000|XOffset=0mm|YOffset=0mm|HoleType=Round|Shape=RoundedRectangle|*
%AMROUNDEDRECTD16*
21,1,0.60000,0.55000,0,0,90.0*
21,1,0.45000,0.70000,0,0,90.0*
1,1,0.15000,0.27500,0.22500*
1,1,0.15000,0.27500,-0.22500*
1,1,0.15000,-0.27500,-0.22500*
1,1,0.15000,-0.27500,0.22500*
%
%ADD16ROUNDEDRECTD16*%
%ADD17R,3.50000X1.25000*%
%ADD18O,0.25000X0.80000*%
%ADD19R,0.80000X0.35000*%
%ADD20R,0.35000X0.85000*%
%ADD21R,0.65000X1.70000*%
%ADD22R,2.70000X2.60000*%
%TA.AperFunction,ConnectorPad*%
%ADD23R,1.38000X0.45000*%
%TA.AperFunction,SMDPad,CuDef*%
G04:AMPARAMS|DCode=24|XSize=1.4mm|YSize=1.7mm|CornerRadius=0.175mm|HoleSize=0mm|Usage=FLASHONLY|Rotation=0.000|XOffset=0mm|YOffset=0mm|HoleType=Round|Shape=RoundedRectangle|*
%AMROUNDEDRECTD24*
21,1,1.40000,1.35000,0,0,0.0*
21,1,1.05000,1.70000,0,0,0.0*
1,1,0.35000,0.52500,-0.67500*
1,1,0.35000,-0.52500,-0.67500*
1,1,0.35000,-0.52500,0.67500*
1,1,0.35000,0.52500,0.67500*
%
%ADD24ROUNDEDRECTD24*%
%ADD25R,5.60000X5.60000*%
G04:AMPARAMS|DCode=26|XSize=1.3mm|YSize=1.1mm|CornerRadius=0.055mm|HoleSize=0mm|Usage=FLASHONLY|Rotation=0.000|XOffset=0mm|YOffset=0mm|HoleType=Round|Shape=RoundedRectangle|*
%AMROUNDEDRECTD26*
21,1,1.30000,0.99000,0,0,0.0*
21,1,1.19000,1.10000,0,0,0.0*
1,1,0.11000,0.59500,-0.49500*
1,1,0.11000,-0.59500,-0.49500*
1,1,0.11000,-0.59500,0.49500*
1,1,0.11000,0.59500,0.49500*
%
%ADD26ROUNDEDRECTD26*%
%TA.AperFunction,ConnectorPad*%
%ADD27R,1.55000X1.42500*%
%ADD28R,1.90000X1.00000*%
%ADD29R,1.90000X1.80000*%
%ADD30R,1.30000X1.65000*%
%TA.AperFunction,SMDPad,CuDef*%
%ADD31R,1.00000X2.90000*%
%TA.AperFunction,Conductor*%
%ADD32C,0.30000*%
%ADD33C,0.26017*%
%ADD34C,0.25000*%
%TA.AperFunction,WasherPad*%
%ADD35C,3.20000*%
%TA.AperFunction,ComponentPad*%
%ADD36C,1.06700*%
%TA.AperFunction,ViaPad*%
%ADD37C,1.27000*%
%ADD38C,0.50000*%
D10*
X10599999Y9275003D02*
D03*
X10499999D02*
D03*
X10724998Y9274998D02*
D03*
X10824997D02*
D03*
X11650000Y9800001D02*
D03*
X10850001Y9649998D02*
D03*
X10799999Y9400002D02*
D03*
X10825002Y8225003D02*
D03*
Y8124998D02*
D03*
Y8024998D02*
D03*
X9674997Y9600001D02*
D03*
X9774997D02*
D03*
X10725003Y8225003D02*
D03*
Y8124998D02*
D03*
Y8024998D02*
D03*
X10750001Y9649998D02*
D03*
X11725001Y8550001D02*
D03*
X9875002Y8375000D02*
D03*
X10899999Y9400002D02*
D03*
X11500002Y8550001D02*
D03*
X11400003D02*
D03*
X11625001D02*
D03*
X11550000Y9800001D02*
D03*
X9975002Y8375000D02*
D03*
D11*
X11677000Y9575002D02*
D03*
X11423000D02*
D03*
X11550000D02*
D03*
X11677000Y9448002D02*
D03*
X11550000D02*
D03*
X11423000D02*
D03*
D12*
X11139998Y9050000D02*
D03*
X10459999D02*
D03*
Y8650000D02*
D03*
X11139998Y9000002D02*
D03*
X10459999Y8699998D02*
D03*
X11139998Y8950000D02*
D03*
Y8900003D02*
D03*
Y8850000D02*
D03*
Y8800003D02*
D03*
Y8750000D02*
D03*
Y8699998D02*
D03*
Y8650000D02*
D03*
Y8599998D02*
D03*
Y8550001D02*
D03*
Y8499998D02*
D03*
X10459999D02*
D03*
Y8550001D02*
D03*
Y8599998D02*
D03*
Y8750000D02*
D03*
Y8800003D02*
D03*
Y8850000D02*
D03*
Y8900003D02*
D03*
Y8950000D02*
D03*
Y9000002D02*
D03*
D13*
X10875000Y9775002D02*
D03*
X12025000Y8550001D02*
D03*
X11874998Y8350001D02*
D03*
X11074999Y8250001D02*
D03*
X10725003Y9775002D02*
D03*
X12200001Y8699998D02*
D03*
X12049999D02*
D03*
X12175002Y8550001D02*
D03*
X11725001Y8350001D02*
D03*
X10925002Y8250001D02*
D03*
D14*
X12300001Y7385700D02*
D03*
Y7614300D02*
D03*
D15*
X11804000Y7924998D02*
D03*
X12033001D02*
D03*
X11574998D02*
D03*
D16*
X12600000Y7300001D02*
D03*
X9924999Y9274998D02*
D03*
X10300000Y9050000D02*
D03*
X9700001Y8900003D02*
D03*
X9924999Y9374998D02*
D03*
X9575002Y8900003D02*
D03*
Y8800003D02*
D03*
X12600000Y7650002D02*
D03*
X10300000Y8950000D02*
D03*
X9700001Y8799998D02*
D03*
X10300000Y8525002D02*
D03*
X9649998Y8199999D02*
D03*
X12600000Y7400000D02*
D03*
Y7549998D02*
D03*
X9649998Y8099999D02*
D03*
X10300000Y8625002D02*
D03*
Y8825001D02*
D03*
Y8725002D02*
D03*
D17*
X11804000Y7266000D02*
D03*
D18*
X11074999Y8435000D02*
D03*
X10524998Y9114998D02*
D03*
X11025002Y8435000D02*
D03*
X10575000Y9114998D02*
D03*
X10675000D02*
D03*
X10825002D02*
D03*
X10775000D02*
D03*
X10624998D02*
D03*
X10724998D02*
D03*
X10875000D02*
D03*
X10925002D02*
D03*
X10975000D02*
D03*
X11025002D02*
D03*
X11074999D02*
D03*
X10975000Y8435000D02*
D03*
X10925002D02*
D03*
X10875000D02*
D03*
X10825002D02*
D03*
X10775000D02*
D03*
X10724998D02*
D03*
X10675000D02*
D03*
X10624998D02*
D03*
X10575000D02*
D03*
X10524998D02*
D03*
D19*
X9800001Y9149999D02*
D03*
X9400002Y9300002D02*
D03*
Y9249999D02*
D03*
Y9200002D02*
D03*
Y9149999D02*
D03*
X9800001Y9349999D02*
D03*
Y9300002D02*
D03*
Y9249999D02*
D03*
Y9200002D02*
D03*
X9400002Y9349999D02*
D03*
Y9400002D02*
D03*
X9800001D02*
D03*
D20*
X9525000Y9077498D02*
D03*
X9475003D02*
D03*
X9625000D02*
D03*
X9725000D02*
D03*
X9475003Y9472498D02*
D03*
X9525000D02*
D03*
X9575002D02*
D03*
X9625000D02*
D03*
X9675002D02*
D03*
X9725000D02*
D03*
X9575002Y9077498D02*
D03*
X9675002D02*
D03*
D21*
X10112502Y7140001D02*
D03*
X10737499D02*
D03*
X10237500D02*
D03*
X10487503D02*
D03*
X10612501D02*
D03*
X10362499D02*
D03*
D22*
X9600001Y9274998D02*
D03*
D23*
X12559000Y9045001D02*
D03*
Y8980002D02*
D03*
Y8914999D02*
D03*
Y8850000D02*
D03*
Y8785001D02*
D03*
D24*
X11914302Y8175000D02*
D03*
X11685702D02*
D03*
D25*
X10799999Y8774999D02*
D03*
D26*
X10040000Y8030002D02*
D03*
X9809998Y8219999D02*
D03*
X10040000D02*
D03*
X9809998Y8030002D02*
D03*
D27*
X12567498Y9163751D02*
D03*
Y8666251D02*
D03*
D28*
X12824998Y9070000D02*
D03*
D29*
Y8799998D02*
D03*
D30*
Y9252499D02*
D03*
Y8577499D02*
D03*
D31*
X9927499Y6860002D02*
D03*
X10922498D02*
D03*
D32*
X11677000Y9575002D02*
Y9916160D01*
X12674600Y9245600D02*
Y9563100D01*
X10857100Y8057096D02*
X10881599Y8032598D01*
X10825002Y8089194D02*
X10857100Y8057096D01*
X10825002Y8089194D02*
Y8124998D01*
Y8024998D02*
Y8089194D01*
Y8124998D02*
Y8225003D01*
Y8019999D02*
Y8024998D01*
Y7053102D02*
Y8019999D01*
X10490200Y9095740D02*
X10524998D01*
X10490200Y9050000D02*
Y9095740D01*
X9875520Y9149999D02*
X9924999Y9199479D01*
X9875520Y9149999D02*
X9916160D01*
X9800001D02*
X9875520D01*
X9525000Y9024620D02*
Y9077498D01*
Y8983980D02*
Y9024620D01*
X9512300Y8473440D02*
Y8971280D01*
Y7882382D02*
Y8473440D01*
X10725003Y9763760D02*
Y9775002D01*
Y9679996D02*
Y9763760D01*
X11884480Y8330522D02*
X12025000Y8471042D01*
X11884480Y8330522D02*
X11914302Y8300700D01*
X11941759Y8016240D02*
X12033001Y7924998D01*
X11914302Y8043697D02*
X11941759Y8016240D01*
X11023600Y8176260D02*
Y8250001D01*
X10144760Y9763760D02*
X10725003D01*
X9677400Y9103360D02*
Y9274998D01*
X9469120Y9349999D02*
X9544121Y9274998D01*
X9347200Y9400002D02*
X9400002D01*
X9334500D02*
X9347200D01*
X9675002Y9103360D02*
X9677400D01*
X10261600Y8950000D02*
X10300000D01*
X10200000D02*
X10261600D01*
X9809998Y8240304D02*
X10020300Y8030002D01*
X9611360Y8438942D02*
X9809998Y8240304D01*
Y8262620D01*
Y8219999D02*
Y8240304D01*
X10020300Y8030002D02*
X10038080D01*
Y7419340D02*
Y8030002D01*
X9725000Y9052560D02*
X10017760D01*
X11422380Y9794240D02*
X11550000D01*
X10300000Y8800003D02*
X10459999D01*
X11501120Y9236918D02*
Y9448002D01*
X12175002Y8562340D02*
Y8572500D01*
Y8550001D02*
Y8562340D01*
Y8572500D02*
X12275820D01*
X10300000Y9050000D02*
Y9131000D01*
X10269220Y9161780D02*
X10300000Y9131000D01*
X12237842Y9045001D02*
X12559000D01*
X11023600Y8250001D02*
X11074999D01*
X10972800Y8125460D02*
X11023600Y8176260D01*
X11725001Y8550001D02*
Y8737239D01*
X11724640Y8737600D02*
X11725001Y8737239D01*
X9240520Y9293322D02*
X9347200Y9400002D01*
X9240520Y8906683D02*
Y9293322D01*
Y8906683D02*
X9347200Y8800003D01*
X9575002D01*
X9774997Y9425005D02*
Y9600001D01*
Y9425005D02*
X9800001Y9400002D01*
X9725000Y9052560D02*
Y9077498D01*
X10017760Y9052560D02*
X10138019Y9172819D01*
Y9293022D01*
X10189657Y9344660D01*
X10662920D01*
Y9232900D02*
Y9344660D01*
Y9232900D02*
X10675000Y9114998D01*
X10724998Y9274998D02*
Y9363862D01*
X10703560Y9385300D02*
X10724998Y9363862D01*
X10116820Y9385300D02*
X10703560D01*
X10040620Y9309100D02*
X10116820Y9385300D01*
X10040620Y9227820D02*
Y9309100D01*
X9410700Y10055860D02*
X9527540Y10172700D01*
X9410700Y9561363D02*
Y10055860D01*
Y9561363D02*
X9475003Y9497060D01*
Y9472498D02*
Y9497060D01*
X11550000Y9794240D02*
Y9800001D01*
X11376660Y9748520D02*
X11422380Y9794240D01*
X10208260Y8420100D02*
Y8538642D01*
X10294620Y8625002D01*
X10300000D01*
X11139998Y8950000D02*
X11686540D01*
X11745920Y9009380D01*
X11871960D01*
X11990070Y9127490D01*
X11755120Y9362440D02*
Y9369882D01*
X11677000Y9448002D02*
X11755120Y9369882D01*
X10724998Y9234642D02*
Y9274998D01*
Y9234642D02*
X10775000Y9184640D01*
Y9114998D02*
Y9184640D01*
X10899999Y9197340D02*
Y9400002D01*
X10825002Y9197340D02*
X10899999D01*
X10825002Y9114998D02*
Y9197340D01*
X9649998Y8099999D02*
X9654997D01*
X9724995Y8030002D01*
X9809998D01*
X10725003Y9679996D02*
X10750001Y9654997D01*
Y9649998D02*
Y9654997D01*
X12033001Y7924998D02*
X12300001Y7657998D01*
Y7614300D02*
Y7657998D01*
X11650000Y9602003D02*
Y9800001D01*
Y9602003D02*
X11677000Y9575002D01*
X12200001Y8699998D02*
Y8710000D01*
X12132300Y8777696D02*
X12200001Y8710000D01*
X12004385Y8777696D02*
X12132300D01*
X11877192Y8650503D02*
X12004385Y8777696D01*
X11877192Y8512195D02*
Y8650503D01*
X11725001Y8360004D02*
X11877192Y8512195D01*
X11725001Y8350001D02*
Y8360004D01*
X10724998Y9114998D02*
Y9207500D01*
X10949940D01*
X11031220Y9288780D01*
X10408920Y9179560D02*
X10414000Y9184640D01*
X10599999D01*
Y9275003D01*
X10144760Y9005240D02*
X10200000Y8950000D01*
X10575000Y9114998D02*
Y9160439D01*
X10499999Y9235440D02*
X10575000Y9160439D01*
X10499999Y9235440D02*
Y9275003D01*
X9975002Y8375000D02*
Y8480725D01*
X10219279Y8725002D01*
X10300000D01*
X10040000Y8030002D02*
X10300000Y8290001D01*
Y8525002D01*
X10237500Y7140001D02*
Y8013593D01*
X10575000Y8351093D01*
Y8435000D01*
X10391140Y8650000D02*
X10459999D01*
X10391140Y8417560D02*
Y8650000D01*
Y8417560D02*
X10434320Y8374380D01*
X9428480Y8928100D02*
X9525000Y9024620D01*
X10178019Y9033581D02*
X10261600Y8950000D01*
X10178019Y9033581D02*
Y9225280D01*
X10227742Y9275003D01*
X10499999D01*
X9649998Y7991378D02*
Y8099999D01*
X9649460Y7990840D02*
X9649998Y7991378D01*
X10012680Y8714740D02*
X10185400Y8887460D01*
X10351140D01*
X10388600Y8850000D01*
X10459999D01*
X12488321Y8785001D02*
X12559000D01*
X12275820Y8572500D02*
X12488321Y8785001D01*
X9924999Y9374998D02*
Y9543999D01*
X9636760Y10271760D02*
X10144760Y9763760D01*
X9428480Y10271760D02*
X9636760D01*
X9334500Y10177780D02*
X9428480Y10271760D01*
X9334500Y9400002D02*
Y10177780D01*
X12639081Y7300001D02*
X12674600Y7335520D01*
X12616180Y9621520D02*
X12674600Y9563100D01*
X11723517Y9621520D02*
X12616180D01*
X11677000Y9575002D02*
X11723517Y9621520D01*
X10881599Y8032598D02*
X11013440D01*
X11142701Y8161858D02*
Y8305617D01*
X11074999Y8373318D02*
X11142701Y8305617D01*
X12600000Y7300001D02*
X12639081D01*
X12674600Y7335520D02*
Y9245600D01*
X12649200Y9271000D02*
X12674600Y9245600D01*
X11996989Y9271000D02*
X12649200D01*
X11775989Y9050000D02*
X11996989Y9271000D01*
X11139998Y9050000D02*
X11775989D01*
X11501120Y9448002D02*
X11550000D01*
X11379200Y9114998D02*
X11501120Y9236918D01*
X11074999Y9114998D02*
X11379200D01*
X10300000Y9050000D02*
X10459999D01*
X11740185Y7861183D02*
X11804000Y7924998D01*
X11740185Y7843520D02*
Y7861183D01*
X11691463Y7794798D02*
X11740185Y7843520D01*
X11050204Y7794798D02*
X11691463D01*
X10825002Y8019999D02*
X11050204Y7794798D01*
X11574998Y7924998D02*
X11673799Y8023799D01*
Y8043296D01*
X11685702Y8055199D01*
Y8175000D01*
X11725001Y8491581D02*
Y8550001D01*
X11484798Y8251378D02*
X11725001Y8491581D01*
X11484798Y7834798D02*
Y8251378D01*
Y7834798D02*
X11665199D01*
Y7934960D01*
X11713799Y7983560D01*
Y8016240D01*
X11941759D01*
X11423000Y9330040D02*
Y9448002D01*
X11277600Y9184640D02*
X11423000Y9330040D01*
X10995320Y9184640D02*
X11277600D01*
X10975000Y9164320D02*
X10995320Y9184640D01*
X10975000Y9114998D02*
Y9164320D01*
X10767598Y9400002D02*
X10799999D01*
X10678160Y9489440D02*
X10767598Y9400002D01*
X10160000Y9489440D02*
X10678160D01*
X9945558Y9274998D02*
X10160000Y9489440D01*
X9924999Y9274998D02*
X9945558D01*
X9875002Y8375000D02*
Y8900160D01*
X9793722Y8981440D02*
X9875002Y8900160D01*
X9715642Y8981440D02*
X9793722D01*
X9675002Y9022080D02*
X9715642Y8981440D01*
X9675002Y9022080D02*
Y9077498D01*
X11013440Y8032598D02*
X11142701Y8161858D01*
X11074999Y8373318D02*
Y8435000D01*
X11585560Y10007600D02*
X11677000Y9916160D01*
X10966440Y10007600D02*
X11585560D01*
X10875000Y9916160D02*
X10966440Y10007600D01*
X10875000Y9775002D02*
Y9916160D01*
X10112502Y7140001D02*
Y7282180D01*
X9512300Y7882382D02*
X10112502Y7282180D01*
X9512300Y8473440D02*
X9763760Y8724900D01*
Y8900003D01*
X9700001D02*
X9763760D01*
X9512300Y8971280D02*
X9525000Y8983980D01*
X10038080Y8030002D02*
X10040000D01*
X10038080Y7419340D02*
X10175240Y7282180D01*
Y7025640D02*
Y7282180D01*
Y7025640D02*
X10712099D01*
X10737499Y7051040D01*
Y7140001D01*
X10391140Y8750000D02*
X10459999D01*
X10391140Y8711362D02*
Y8750000D01*
X10304780Y8625002D02*
X10391140Y8711362D01*
X10300000Y8625002D02*
X10304780D01*
X10300000Y8800003D02*
Y8825001D01*
X11874998Y8340004D02*
X11884480Y8330522D01*
X12025000Y8471042D02*
Y8550001D01*
X9924999Y9199479D02*
Y9274998D01*
X9544121D02*
X9600001D01*
X9400002Y9349999D02*
X9469120D01*
X9675002Y9077498D02*
Y9103360D01*
X9600001Y9274998D02*
X9677400D01*
X10362499Y7140001D02*
Y8068346D01*
X10624998Y8330844D01*
Y8435000D01*
X9625000Y8947587D02*
Y9077498D01*
X9577415Y8900003D02*
X9625000Y8947587D01*
X9575002Y8900003D02*
X9577415D01*
X10737499Y7140001D02*
Y7852466D01*
X10725003Y7864963D02*
X10737499Y7852466D01*
X10725003Y7864963D02*
Y8024998D01*
X10524998Y9095740D02*
Y9114998D01*
X10459999Y9050000D02*
X10490200D01*
X10112502Y6979559D02*
Y7140001D01*
Y6979559D02*
X10114681Y6977380D01*
X10749280D01*
X10825002Y7053102D01*
X10750001Y9613900D02*
Y9649998D01*
Y9613900D02*
X10836361Y9527540D01*
X11375537D01*
X11423000Y9575002D01*
X10799999Y9349339D02*
Y9400002D01*
Y9349339D02*
X10824997Y9324340D01*
Y9274998D02*
Y9324340D01*
X10875000Y9722719D02*
Y9775002D01*
X10850001Y9697720D02*
X10875000Y9722719D01*
X10850001Y9649998D02*
Y9697720D01*
X10725003Y8124998D02*
Y8225003D01*
Y8024998D02*
Y8124998D01*
X9738040Y8219999D02*
X9809998D01*
X9718040Y8199999D02*
X9738040Y8219999D01*
X9649998Y8199999D02*
X9718040D01*
X9875002Y8327624D02*
Y8375000D01*
X9809998Y8262620D02*
X9875002Y8327624D01*
X9400002Y9349999D02*
Y9400002D01*
X9600001Y9186779D02*
Y9274998D01*
X9575002Y9161780D02*
X9600001Y9186779D01*
X9575002Y9077498D02*
Y9161780D01*
X11550000Y9575002D02*
Y9794240D01*
X12049999Y8687344D02*
Y8699998D01*
Y8687344D02*
X12175002Y8562340D01*
X11685702Y8175000D02*
Y8300705D01*
X11725001Y8340004D01*
Y8350001D01*
X11804000Y7266000D02*
Y7924998D01*
Y7266000D02*
X11916501D01*
X12036201Y7385700D01*
X12300001D01*
X12316353D01*
X12402053Y7300001D01*
X12600000D01*
X11914302Y8043697D02*
Y8175000D01*
Y8300700D01*
X11874998Y8340004D02*
Y8350001D01*
X12300001Y7614300D02*
X12464552D01*
X12500254Y7650002D01*
X12600000D01*
X11074999Y8250001D02*
Y8260004D01*
X11025002Y8310001D02*
X11074999Y8260004D01*
X11025002Y8310001D02*
Y8435000D01*
X9700001Y8799998D02*
Y8800003D01*
X9575002D02*
X9700001D01*
X9800001Y9400002D02*
X9894997D01*
X9920000Y9374998D01*
X9924999D01*
X12600000Y7400000D02*
Y7549998D01*
X11139998Y8550001D02*
X11400003D01*
X11500002D02*
X11625001D01*
X10612501Y7140001D02*
Y8212282D01*
X10724998Y8324779D01*
Y8435000D01*
D33*
X11139998Y8900003D02*
X11754963D01*
X11769959Y8914999D01*
X12559000D01*
X12413620Y8850000D02*
X12559000D01*
X12372340Y8808720D02*
X12413620Y8850000D01*
X11257280D02*
X11298560Y8808720D01*
X11139998Y8850000D02*
X11257280D01*
D34*
X10899999Y9400002D02*
Y9405000D01*
X10715203Y9589800D02*
X10899999Y9405000D01*
X10212278Y9589800D02*
X10715203D01*
X10141875Y9660199D02*
X10212278Y9589800D01*
X9560199Y9660199D02*
X10141875D01*
X9525000Y9625000D02*
X9560199Y9660199D01*
X9525000Y9472498D02*
Y9625000D01*
X9674997Y9600001D02*
X9675002Y9472498D01*
X10487503Y7140001D02*
Y8140314D01*
X10675000Y8327812D01*
Y8435000D01*
X10925002Y8250001D02*
Y8260004D01*
X10975000Y8310001D01*
Y8435000D01*
X9975002Y8275000D02*
Y8375000D01*
Y8275000D02*
X10030003Y8219999D01*
X10040000D01*
D35*
X9600001Y9900001D02*
D03*
X12600000D02*
D03*
Y6900001D02*
D03*
X9600001D02*
D03*
D36*
X11804000Y9511502D02*
D03*
X11296000Y9409902D02*
D03*
Y9613102D02*
D03*
D37*
X10269220Y9161780D02*
D03*
X9916160Y9149999D02*
D03*
X12237842Y9045001D02*
D03*
X10972800Y8125460D02*
D03*
X11724640Y8737600D02*
D03*
X9611360Y8438942D02*
D03*
X10040620Y9227820D02*
D03*
X9527540Y10172700D02*
D03*
X11376660Y9748520D02*
D03*
X10208260Y8420100D02*
D03*
X11990070Y9127490D02*
D03*
X11755120Y9362440D02*
D03*
X11031220Y9288780D02*
D03*
X10408920Y9179560D02*
D03*
X10144760Y9005240D02*
D03*
X10434320Y8374380D02*
D03*
X9428480Y8928100D02*
D03*
X9649460Y7990840D02*
D03*
X10012680Y8714740D02*
D03*
X9924999Y9543999D02*
D03*
X10144760Y9763760D02*
D03*
X12372340Y8808720D02*
D03*
X11298560D02*
D03*
D38*
X9545000Y9220002D02*
D03*
X9655002D02*
D03*
X9545000Y9329999D02*
D03*
X9655002D02*
D03*
X11019998Y8665002D02*
D03*
Y8554999D02*
D03*
Y8994999D02*
D03*
X10910001D02*
D03*
X11019998Y8885001D02*
D03*
X10910001D02*
D03*
X10799999Y8994999D02*
D03*
Y8774999D02*
D03*
Y8885001D02*
D03*
X11019998Y8774999D02*
D03*
X10910001Y8665002D02*
D03*
Y8554999D02*
D03*
Y8774999D02*
D03*
X10799999Y8665002D02*
D03*
Y8554999D02*
D03*
X10579999Y8994999D02*
D03*
X10690001Y8885001D02*
D03*
Y8994999D02*
D03*
Y8774999D02*
D03*
X10579999D02*
D03*
Y8885001D02*
D03*
X10690001Y8665002D02*
D03*
X10579999Y8554999D02*
D03*
X10690001D02*
D03*
X10579999Y8665002D02*
D03*
%TF.MD5,f02b9f57c33472903b84aa73d766aa81*%
M02*
