%TF.GenerationSoftware,Altium Limited,Altium Designer,26.9.1 (10)*%
G04 Layer_Physical_Order=2*
G04 Layer_Color=36540*
G04 Board_Origin=0|0*
%FSLAX45Y45*%
%MOMM*%
%TF.SameCoordinates,BB43777D-D1B5-492F-AFD8-DD2008C5DB50*%
%TF.FilePolarity,Positive*%
%TF.FileFunction,Copper,L2,Inr,Signal*%
%TF.Part,Single*%
G01*
G75*
%TA.AperFunction,WasherPad*%
%ADD35C,3.20000*%
%TA.AperFunction,ComponentPad*%
%ADD36C,1.06700*%
%TA.AperFunction,ViaPad*%
%ADD37C,1.27000*%
%ADD38C,0.50000*%
%TA.AperFunction,Conductor*%
%ADD39C,0.25400*%
%ADD40C,0.38100*%
G36*
X12720089Y10190239D02*
X12766314Y10171092D01*
X12807915Y10143294D01*
X12843295Y10107915D01*
X12871092Y10066314D01*
X12890239Y10020089D01*
X12900000Y9971017D01*
Y9946000D01*
Y6900000D01*
Y6880301D01*
X12892314Y6841662D01*
X12877238Y6805264D01*
X12855350Y6772507D01*
X12827493Y6744650D01*
X12794736Y6722762D01*
X12758338Y6707686D01*
X12719698Y6700000D01*
X9428983D01*
X9379911Y6709761D01*
X9333686Y6728908D01*
X9292084Y6756705D01*
X9256705Y6792084D01*
X9228908Y6833686D01*
X9209761Y6879911D01*
X9200000Y6928983D01*
Y6954000D01*
Y10000000D01*
Y10019698D01*
X9207686Y10058338D01*
X9222762Y10094735D01*
X9244650Y10127492D01*
X9272507Y10155350D01*
X9305264Y10177237D01*
X9341662Y10192314D01*
X9380301Y10200000D01*
X9438090D01*
X9451340Y10182732D01*
Y10162668D01*
X9456533Y10143288D01*
X9466565Y10125912D01*
X9480752Y10111725D01*
X9498128Y10101693D01*
X9517508Y10096500D01*
X9537572D01*
X9556952Y10101693D01*
X9574328Y10111725D01*
X9588515Y10125912D01*
X9598547Y10143288D01*
X9599489Y10146802D01*
X9712393D01*
X9791202Y10067993D01*
Y9954194D01*
X9766064Y9950376D01*
D01*
D01*
X9753046Y9981805D01*
X9734146Y10010090D01*
X9710091Y10034145D01*
X9681805Y10053045D01*
X9650376Y10066064D01*
X9617010Y10072700D01*
X9582992D01*
X9549626Y10066064D01*
X9518197Y10053045D01*
X9489911Y10034145D01*
X9465856Y10010090D01*
X9446956Y9981805D01*
X9433938Y9950375D01*
X9427301Y9917010D01*
Y9882991D01*
X9433938Y9849626D01*
X9446956Y9818197D01*
X9465856Y9789911D01*
X9489911Y9765856D01*
X9518197Y9746956D01*
X9549626Y9733937D01*
X9582992Y9727301D01*
X9617010D01*
X9650376Y9733937D01*
X9681805Y9746956D01*
X9710091Y9765856D01*
X9734146Y9789911D01*
X9753046Y9818197D01*
X9766064Y9849625D01*
X9791202Y9845807D01*
Y9451340D01*
X9793174Y9441429D01*
X9798788Y9433028D01*
X9971432Y9260383D01*
X9969613Y9257232D01*
X9964792Y9239240D01*
X9964052Y9237524D01*
X9959719Y9233651D01*
X9939020Y9222762D01*
X9926192Y9226199D01*
X9906128D01*
X9886748Y9221007D01*
X9869372Y9210975D01*
X9855185Y9196788D01*
X9845153Y9179412D01*
X9839960Y9160031D01*
Y9139967D01*
X9845153Y9120587D01*
X9846972Y9117436D01*
X9774973Y9045438D01*
X9519920D01*
X9510009Y9043466D01*
X9501608Y9037852D01*
X9461043Y8997288D01*
X9457892Y8999107D01*
X9438512Y9004300D01*
X9418448D01*
X9399068Y8999107D01*
X9381692Y8989075D01*
X9367505Y8974888D01*
X9357473Y8957512D01*
X9352280Y8938132D01*
Y8918068D01*
X9357473Y8898688D01*
X9367505Y8881312D01*
X9381692Y8867125D01*
X9399068Y8857093D01*
X9402582Y8856151D01*
Y8415020D01*
X9404554Y8405109D01*
X9410168Y8396708D01*
X9530691Y8276185D01*
X9539092Y8270571D01*
X9549003Y8268599D01*
X10354437D01*
X10364348Y8270571D01*
X10372749Y8276185D01*
X10401757Y8305192D01*
X10404908Y8303373D01*
X10424288Y8298180D01*
X10444352D01*
X10463732Y8303373D01*
X10481108Y8313405D01*
X10495295Y8327592D01*
X10505327Y8344968D01*
X10510520Y8364348D01*
Y8384412D01*
X10505327Y8403792D01*
X10496305Y8419420D01*
X10498297Y8426954D01*
X10507565Y8444820D01*
X11199488D01*
X11209208Y8421353D01*
X10988103Y8200248D01*
X10982832Y8201660D01*
X10962768D01*
X10943388Y8196467D01*
X10926012Y8186435D01*
X10911825Y8172248D01*
X10901793Y8154872D01*
X10896600Y8135492D01*
Y8115428D01*
X10901793Y8096048D01*
X10911825Y8078672D01*
X10926012Y8064485D01*
X10943388Y8054453D01*
X10962768Y8049260D01*
X10982832D01*
X11002212Y8054453D01*
X11019588Y8064485D01*
X11033775Y8078672D01*
X11043807Y8096048D01*
X11049000Y8115428D01*
Y8135492D01*
X11043807Y8154872D01*
X11033775Y8172248D01*
X11033564Y8172459D01*
X11305924Y8444820D01*
X11457757D01*
X11467668Y8446791D01*
X11476070Y8452405D01*
X11692077Y8668412D01*
X11695228Y8666593D01*
X11714608Y8661400D01*
X11734672D01*
X11754052Y8666593D01*
X11771428Y8676625D01*
X11785615Y8690812D01*
X11795647Y8708188D01*
X11800840Y8727568D01*
Y8747632D01*
X11795647Y8767012D01*
X11785615Y8784388D01*
X11778415Y8791588D01*
X11788297Y8816988D01*
X12296140D01*
Y8798688D01*
X12301333Y8779308D01*
X12311365Y8761932D01*
X12325552Y8747745D01*
X12342928Y8737713D01*
X12362308Y8732520D01*
X12382372D01*
X12401752Y8737713D01*
X12419128Y8747745D01*
X12433315Y8761932D01*
X12443347Y8779308D01*
X12448540Y8798688D01*
Y8818752D01*
X12443347Y8838132D01*
X12433315Y8855508D01*
X12419128Y8869695D01*
X12401752Y8879727D01*
X12382372Y8884920D01*
X12362308D01*
X12342928Y8879727D01*
X12342634Y8879557D01*
D01*
D01*
X12331700Y8881732D01*
X11339200D01*
X11328266Y8879557D01*
X11327972Y8879727D01*
X11308592Y8884920D01*
X11288528D01*
X11269148Y8879727D01*
X11251772Y8869695D01*
X11237585Y8855508D01*
X11227553Y8838132D01*
X11222360Y8818752D01*
Y8798688D01*
X11227553Y8779308D01*
X11237585Y8761932D01*
X11251772Y8747745D01*
X11269148Y8737713D01*
X11288528Y8732520D01*
X11308592D01*
X11327972Y8737713D01*
X11345348Y8747745D01*
X11359535Y8761932D01*
X11369567Y8779308D01*
X11374760Y8798688D01*
Y8816988D01*
X11660983D01*
X11670865Y8791588D01*
X11663665Y8784388D01*
X11653633Y8767012D01*
X11652691Y8763498D01*
X11562080D01*
X11552169Y8761526D01*
X11543768Y8755912D01*
X11284470Y8496615D01*
X11043934D01*
X11038881Y8522015D01*
X11041354Y8523039D01*
X11051959Y8533644D01*
X11057698Y8547500D01*
Y8562498D01*
X11051959Y8576355D01*
X11041354Y8586960D01*
X11027497Y8592699D01*
X11012499D01*
X10998643Y8586960D01*
X10988038Y8576355D01*
X10982298Y8562498D01*
Y8547500D01*
X10988038Y8533644D01*
X10998643Y8523039D01*
X11001115Y8522015D01*
X10996063Y8496615D01*
X10933936D01*
X10928884Y8522015D01*
X10931356Y8523039D01*
X10941962Y8533644D01*
X10947701Y8547500D01*
Y8562498D01*
X10941962Y8576355D01*
X10931356Y8586960D01*
X10917500Y8592699D01*
X10902502D01*
X10888646Y8586960D01*
X10878040Y8576355D01*
X10872301Y8562498D01*
Y8547500D01*
X10878040Y8533644D01*
X10888646Y8523039D01*
X10891118Y8522015D01*
X10886066Y8496615D01*
X10823934D01*
X10818882Y8522015D01*
X10821354Y8523039D01*
X10831959Y8533644D01*
X10837699Y8547500D01*
Y8562498D01*
X10831959Y8576355D01*
X10821354Y8586960D01*
X10807498Y8592699D01*
X10792500D01*
X10778643Y8586960D01*
X10768038Y8576355D01*
X10762299Y8562498D01*
Y8547500D01*
X10768038Y8533644D01*
X10778643Y8523039D01*
X10781116Y8522015D01*
X10776063Y8496615D01*
X10713937D01*
X10708884Y8522015D01*
X10711357Y8523039D01*
X10721962Y8533644D01*
X10727701Y8547500D01*
Y8562498D01*
X10721962Y8576355D01*
X10711357Y8586960D01*
X10697501Y8592699D01*
X10682502D01*
X10668646Y8586960D01*
X10658041Y8576355D01*
X10652302Y8562498D01*
Y8547500D01*
X10658041Y8533644D01*
X10668646Y8523039D01*
X10671119Y8522015D01*
D01*
D01*
X10666066Y8496615D01*
X10603935D01*
X10598882Y8522015D01*
X10601354Y8523039D01*
X10611960Y8533644D01*
X10617699Y8547500D01*
Y8562498D01*
X10614935Y8569171D01*
X10675830Y8630066D01*
X10682502Y8627302D01*
X10697501D01*
X10711357Y8633041D01*
X10721962Y8643646D01*
X10727701Y8657503D01*
Y8672501D01*
X10724938Y8679173D01*
X10750074Y8704309D01*
X10768038Y8686357D01*
X10762299Y8672501D01*
Y8657503D01*
X10768038Y8643646D01*
X10778643Y8633041D01*
X10792500Y8627302D01*
X10807498D01*
X10821354Y8633041D01*
X10831959Y8643646D01*
X10837699Y8657503D01*
Y8672501D01*
X10831959Y8686357D01*
X10821354Y8696962D01*
X10807498Y8702702D01*
X10792500D01*
X10778644Y8696963D01*
X10760691Y8714926D01*
X10785828Y8740063D01*
X10792500Y8737299D01*
X10807498D01*
X10821354Y8743038D01*
X10831959Y8753644D01*
X10837699Y8767500D01*
Y8782498D01*
X10834935Y8789170D01*
X10895830Y8850065D01*
X10902502Y8847301D01*
X10917500D01*
X10931356Y8853041D01*
X10941962Y8863646D01*
X10947701Y8877502D01*
Y8892500D01*
X10944937Y8899172D01*
X10970074Y8924309D01*
X10988037Y8906356D01*
X10982298Y8892500D01*
Y8877502D01*
X10988038Y8863646D01*
X10998643Y8853041D01*
X11012499Y8847301D01*
X11027497D01*
X11041354Y8853041D01*
X11051959Y8863646D01*
X11057698Y8877502D01*
Y8892500D01*
X11051959Y8906357D01*
X11041354Y8916962D01*
X11027497Y8922701D01*
X11012499D01*
X10998643Y8916962D01*
X10980691Y8934926D01*
X11005827Y8960062D01*
X11012499Y8957299D01*
X11027497D01*
X11041354Y8963038D01*
X11051959Y8973643D01*
X11057698Y8987499D01*
Y9002498D01*
X11054934Y9009170D01*
X11394972Y9349208D01*
X11400586Y9357609D01*
X11402558Y9367520D01*
Y9676571D01*
X11406072Y9677513D01*
X11423448Y9687545D01*
X11437635Y9701732D01*
X11447667Y9719108D01*
X11452860Y9738488D01*
Y9758552D01*
X11447667Y9777932D01*
X11437635Y9795308D01*
X11423448Y9809495D01*
X11406072Y9819527D01*
X11386692Y9824720D01*
X11366628D01*
X11347248Y9819527D01*
X11329872Y9809495D01*
X11315685Y9795308D01*
X11305653Y9777932D01*
X11300460Y9758552D01*
Y9738488D01*
X11305653Y9719108D01*
X11315157Y9702645D01*
X11313408Y9697054D01*
X11308025Y9685994D01*
X11302343Y9679152D01*
X11287304D01*
X11270506Y9674651D01*
X11255444Y9665956D01*
X11243147Y9653658D01*
X11234451Y9638597D01*
X11229950Y9621798D01*
Y9604407D01*
X11234451Y9587608D01*
X11243147Y9572547D01*
X11255444Y9560249D01*
X11270506Y9551554D01*
X11287304Y9547053D01*
X11304695D01*
X11321494Y9551554D01*
X11325362Y9553787D01*
X11350762Y9540216D01*
Y9482789D01*
X11325362Y9469218D01*
X11321494Y9471451D01*
X11304695Y9475952D01*
X11287304D01*
X11270506Y9471451D01*
X11255444Y9462756D01*
X11243147Y9450458D01*
X11234451Y9435397D01*
X11229950Y9418598D01*
Y9401207D01*
X11234451Y9384408D01*
X11243147Y9369347D01*
X11255444Y9357049D01*
X11270506Y9348354D01*
X11281896Y9345302D01*
X11289340Y9329734D01*
X11290968Y9318453D01*
X11000062Y9027547D01*
X10998643Y9026959D01*
X10988038Y9016354D01*
X10987450Y9014935D01*
X10973101Y9000586D01*
X10964394Y9001241D01*
X10945179Y9008585D01*
X10941962Y9016354D01*
X10931356Y9026959D01*
X10917500Y9032698D01*
X10902502D01*
X10888646Y9026959D01*
X10878040Y9016354D01*
X10872301Y9002498D01*
Y8987499D01*
X10878040Y8973643D01*
X10888646Y8963038D01*
X10896414Y8959820D01*
X10903758Y8940605D01*
X10904414Y8931899D01*
X10890065Y8917550D01*
X10888646Y8916962D01*
X10878040Y8906357D01*
X10877453Y8904937D01*
X10863099Y8890583D01*
X10854388Y8891241D01*
X10835178Y8898584D01*
X10831959Y8906357D01*
X10821354Y8916962D01*
X10807498Y8922701D01*
X10792500D01*
X10778643Y8916962D01*
X10768038Y8906357D01*
X10762299Y8892500D01*
Y8877502D01*
X10768038Y8863646D01*
X10778643Y8853041D01*
X10786416Y8849822D01*
X10793759Y8830612D01*
X10794417Y8821901D01*
X10780063Y8807547D01*
X10778643Y8806960D01*
X10768038Y8796354D01*
X10767450Y8794935D01*
X10753101Y8780586D01*
X10744395Y8781242D01*
X10725180Y8788586D01*
X10721962Y8796354D01*
X10711357Y8806960D01*
X10697501Y8812699D01*
X10682502D01*
X10668646Y8806960D01*
X10658041Y8796354D01*
X10652302Y8782498D01*
Y8767500D01*
X10658041Y8753644D01*
X10668646Y8743038D01*
X10676415Y8739821D01*
X10683759Y8720606D01*
X10684414Y8711899D01*
X10670065Y8697550D01*
X10668646Y8696962D01*
X10658041Y8686357D01*
X10657453Y8684938D01*
X10643099Y8670584D01*
X10634388Y8671241D01*
X10615179Y8678585D01*
X10611960Y8686357D01*
X10601354Y8696962D01*
X10587498Y8702702D01*
X10572500D01*
X10558644Y8696962D01*
X10548039Y8686357D01*
X10542299Y8672501D01*
Y8657503D01*
X10548039Y8643646D01*
X10558644Y8633041D01*
X10566416Y8629822D01*
X10573759Y8610612D01*
X10574417Y8601902D01*
X10560063Y8587548D01*
X10558644Y8586960D01*
X10548039Y8576355D01*
X10547451Y8574936D01*
X10540433Y8567918D01*
X10330180D01*
X10320269Y8565946D01*
X10311868Y8560332D01*
X10240823Y8489288D01*
X10237672Y8491107D01*
X10218292Y8496300D01*
X10198228D01*
X10178848Y8491107D01*
X10161472Y8481075D01*
X10147285Y8466888D01*
X10137253Y8449512D01*
X10132060Y8430132D01*
Y8410068D01*
X10137253Y8390688D01*
X10142732Y8381197D01*
X10133349Y8359861D01*
X10129140Y8355797D01*
X9731129D01*
X9680548Y8406378D01*
X9682367Y8409530D01*
X9687560Y8428910D01*
Y8448974D01*
X9682367Y8468354D01*
X9672335Y8485730D01*
X9658148Y8499917D01*
X9640772Y8509949D01*
X9621392Y8515142D01*
X9601328D01*
X9581948Y8509949D01*
X9564572Y8499917D01*
X9550385Y8485730D01*
X9540353Y8468354D01*
X9535160Y8448974D01*
Y8428910D01*
X9540353Y8409530D01*
X9550385Y8392154D01*
X9564572Y8377966D01*
X9581948Y8367934D01*
X9601328Y8362742D01*
X9621392D01*
X9640772Y8367934D01*
X9643923Y8369754D01*
X9669816Y8343861D01*
X9660095Y8320395D01*
X9559730D01*
X9454378Y8425747D01*
Y8856151D01*
X9457892Y8857093D01*
X9475268Y8867125D01*
X9489455Y8881312D01*
X9499487Y8898688D01*
X9504680Y8918068D01*
Y8938132D01*
X9499487Y8957512D01*
X9497668Y8960663D01*
X9530647Y8993642D01*
X9785701D01*
X9795611Y8995614D01*
X9804013Y9001228D01*
X9883597Y9080811D01*
X9886748Y9078992D01*
X9906128Y9073799D01*
X9926192D01*
X9945572Y9078992D01*
X9962948Y9089024D01*
X9977135Y9103211D01*
X9987167Y9120587D01*
X9991988Y9138580D01*
X9992728Y9140296D01*
X9997061Y9144169D01*
X10017760Y9155057D01*
X10030588Y9151620D01*
X10050652D01*
X10070032Y9156813D01*
X10087408Y9166845D01*
X10093462Y9172899D01*
X10118862Y9162378D01*
Y9077189D01*
X10115348Y9076247D01*
X10097972Y9066215D01*
X10083785Y9052028D01*
X10073753Y9034652D01*
X10068560Y9015272D01*
Y8995208D01*
X10073753Y8975828D01*
X10083785Y8958452D01*
X10097972Y8944265D01*
X10115348Y8934233D01*
X10134728Y8929040D01*
X10154792D01*
X10174172Y8934233D01*
X10191548Y8944265D01*
X10205735Y8958452D01*
X10215767Y8975828D01*
X10220960Y8995208D01*
Y9015272D01*
X10215767Y9034652D01*
X10205735Y9052028D01*
X10191548Y9066215D01*
X10174172Y9076247D01*
X10170658Y9077189D01*
Y9137067D01*
X10196058Y9140411D01*
X10198213Y9132368D01*
X10208245Y9114992D01*
X10222432Y9100805D01*
X10239808Y9090773D01*
X10259188Y9085580D01*
X10279252D01*
X10298632Y9090773D01*
X10316008Y9100805D01*
X10330195Y9114992D01*
X10361794Y9118923D01*
X10362132Y9118585D01*
X10379508Y9108553D01*
X10398888Y9103360D01*
X10418952D01*
X10438332Y9108553D01*
X10455708Y9118585D01*
X10469895Y9132772D01*
X10479927Y9150148D01*
X10485120Y9169528D01*
Y9189592D01*
X10479927Y9208972D01*
X10478108Y9212123D01*
X10528867Y9262882D01*
X10959271D01*
X10960213Y9259368D01*
X10970245Y9241992D01*
X10984432Y9227805D01*
X11001808Y9217773D01*
X11021188Y9212580D01*
X11041252D01*
X11060632Y9217773D01*
X11078008Y9227805D01*
X11092195Y9241992D01*
X11102227Y9259368D01*
X11107420Y9278748D01*
Y9298812D01*
X11102227Y9318192D01*
X11092195Y9335568D01*
X11078008Y9349755D01*
X11060632Y9359787D01*
X11041252Y9364980D01*
X11021188D01*
X11001808Y9359787D01*
X10984432Y9349755D01*
X10970245Y9335568D01*
X10960213Y9318192D01*
X10959271Y9314678D01*
X10518140D01*
X10508229Y9312706D01*
X10499828Y9307092D01*
X10441483Y9248748D01*
X10438332Y9250567D01*
X10418952Y9255760D01*
X10398888D01*
X10379508Y9250567D01*
X10362132Y9240535D01*
X10347945Y9226348D01*
X10316346Y9222417D01*
X10316008Y9222755D01*
X10298632Y9232787D01*
X10279252Y9237980D01*
X10259188D01*
X10239808Y9232787D01*
X10222432Y9222755D01*
X10208245Y9208568D01*
X10198213Y9191192D01*
X10196058Y9183149D01*
X10170658Y9186493D01*
Y9691811D01*
X10174172Y9692753D01*
X10191548Y9702785D01*
X10205735Y9716972D01*
X10215767Y9734348D01*
X10220960Y9753728D01*
Y9773792D01*
X10215767Y9793172D01*
X10205735Y9810548D01*
X10191548Y9824735D01*
X10174172Y9834767D01*
X10154792Y9839960D01*
X10134728D01*
X10115348Y9834767D01*
X10097972Y9824735D01*
X10083785Y9810548D01*
X10073753Y9793172D01*
X10068560Y9773792D01*
Y9753728D01*
X10073753Y9734348D01*
X10075572Y9731197D01*
X9957563Y9613187D01*
X9954411Y9615006D01*
X9935031Y9620199D01*
X9914967D01*
X9895587Y9615006D01*
X9878211Y9604974D01*
X9868398Y9595161D01*
X9850287Y9599571D01*
X9842998Y9604232D01*
Y10078720D01*
X9841026Y10088631D01*
X9835412Y10097032D01*
X9757845Y10174600D01*
X9768366Y10200000D01*
X12671017D01*
X12720089Y10190239D01*
D02*
G37*
G36*
X10118862Y9665316D02*
Y9293262D01*
X10093462Y9282741D01*
X10087408Y9288795D01*
X10070032Y9298827D01*
X10050652Y9304020D01*
X10030588D01*
X10011208Y9298827D01*
X10008057Y9297008D01*
X9844811Y9460253D01*
X9846416Y9484584D01*
X9869271Y9491964D01*
X9878211Y9483024D01*
X9895587Y9472992D01*
X9914967Y9467799D01*
X9935031D01*
X9954411Y9472992D01*
X9971787Y9483024D01*
X9985974Y9497211D01*
X9996006Y9514587D01*
X10001199Y9533967D01*
Y9554031D01*
X9996006Y9573411D01*
X9994187Y9576563D01*
X10093462Y9675838D01*
X10118862Y9665316D01*
D02*
G37*
G36*
X11636718Y8686302D02*
X11447030Y8496615D01*
X11390906D01*
X11381186Y8520081D01*
X11572807Y8711702D01*
X11626196D01*
X11636718Y8686302D01*
D02*
G37*
%LPC*%
G36*
X12617010Y10072700D02*
X12582991D01*
X12549625Y10066064D01*
X12518196Y10053045D01*
X12489911Y10034145D01*
X12465855Y10010090D01*
X12446956Y9981805D01*
X12433937Y9950375D01*
X12427300Y9917010D01*
Y9882991D01*
X12433937Y9849626D01*
X12446956Y9818197D01*
X12465855Y9789911D01*
X12489911Y9765856D01*
X12518196Y9746956D01*
X12549625Y9733937D01*
X12582991Y9727301D01*
X12617010D01*
X12650375Y9733937D01*
X12681804Y9746956D01*
X12710090Y9765856D01*
X12734145Y9789911D01*
X12753045Y9818197D01*
X12766063Y9849626D01*
X12772700Y9882991D01*
Y9917010D01*
X12766063Y9950375D01*
X12753045Y9981805D01*
X12734145Y10010090D01*
X12710090Y10034145D01*
X12681804Y10053045D01*
X12650375Y10066064D01*
X12617010Y10072700D01*
D02*
G37*
G36*
X9662501Y9367699D02*
X9647503D01*
X9633647Y9361960D01*
X9623042Y9351354D01*
X9617302Y9337498D01*
Y9322500D01*
X9623042Y9308644D01*
X9633647Y9298039D01*
X9647503Y9292299D01*
X9662501D01*
X9676358Y9298039D01*
X9686963Y9308644D01*
X9692702Y9322500D01*
Y9337498D01*
X9686963Y9351354D01*
X9676358Y9361960D01*
X9662501Y9367699D01*
D02*
G37*
G36*
X9552499D02*
X9537501D01*
X9523645Y9361960D01*
X9513039Y9351354D01*
X9507300Y9337498D01*
Y9322500D01*
X9513039Y9308644D01*
X9523645Y9298039D01*
X9537501Y9292299D01*
X9552499D01*
X9566355Y9298039D01*
X9576961Y9308644D01*
X9582700Y9322500D01*
Y9337498D01*
X9576961Y9351354D01*
X9566355Y9361960D01*
X9552499Y9367699D01*
D02*
G37*
G36*
X9662501Y9257702D02*
X9647503D01*
X9633647Y9251962D01*
X9623042Y9241357D01*
X9617302Y9227501D01*
Y9212503D01*
X9623042Y9198647D01*
X9633647Y9188041D01*
X9647503Y9182302D01*
X9662501D01*
X9676358Y9188041D01*
X9686963Y9198647D01*
X9692702Y9212503D01*
Y9227501D01*
X9686963Y9241357D01*
X9676358Y9251962D01*
X9662501Y9257702D01*
D02*
G37*
G36*
X9552499D02*
X9537501D01*
X9523645Y9251962D01*
X9513039Y9241357D01*
X9507300Y9227501D01*
Y9212503D01*
X9513039Y9198647D01*
X9523645Y9188041D01*
X9537501Y9182302D01*
X9552499D01*
X9566355Y9188041D01*
X9576961Y9198647D01*
X9582700Y9212503D01*
Y9227501D01*
X9576961Y9241357D01*
X9566355Y9251962D01*
X9552499Y9257702D01*
D02*
G37*
G36*
X11812695Y9577552D02*
X11795304D01*
X11778506Y9573051D01*
X11763444Y9564356D01*
X11751147Y9552058D01*
X11742451Y9536997D01*
X11737950Y9520198D01*
Y9502807D01*
X11742451Y9486008D01*
X11751147Y9470947D01*
X11758053Y9464040D01*
X11751315Y9441588D01*
X11749219Y9438640D01*
X11745088D01*
X11725708Y9433447D01*
X11708332Y9423415D01*
X11694145Y9409228D01*
X11684113Y9391852D01*
X11678920Y9372472D01*
Y9352408D01*
X11684113Y9333028D01*
X11694145Y9315652D01*
X11708332Y9301465D01*
X11725708Y9291433D01*
X11745088Y9286240D01*
X11765152D01*
X11784532Y9291433D01*
X11787683Y9293252D01*
X11920882Y9160053D01*
X11919063Y9156902D01*
X11913870Y9137522D01*
Y9117458D01*
X11919063Y9098078D01*
X11929095Y9080702D01*
X11943282Y9066515D01*
X11960658Y9056483D01*
X11980038Y9051290D01*
X12000102D01*
X12019482Y9056483D01*
X12036858Y9066515D01*
X12051045Y9080702D01*
X12061077Y9098078D01*
X12066270Y9117458D01*
Y9137522D01*
X12061077Y9156902D01*
X12051045Y9174278D01*
X12036858Y9188465D01*
X12019482Y9198497D01*
X12000102Y9203690D01*
X11980038D01*
X11960658Y9198497D01*
X11957507Y9196678D01*
X11824308Y9329877D01*
X11826127Y9333028D01*
X11831320Y9352408D01*
Y9372472D01*
X11826127Y9391852D01*
X11816095Y9409228D01*
X11805271Y9420053D01*
X11808029Y9434784D01*
X11813954Y9445790D01*
X11829494Y9449954D01*
X11844555Y9458649D01*
X11856853Y9470947D01*
X11865549Y9486008D01*
X11870050Y9502807D01*
Y9520198D01*
X11865549Y9536997D01*
X11856853Y9552058D01*
X11844555Y9564356D01*
X11829494Y9573051D01*
X11812695Y9577552D01*
D02*
G37*
G36*
X12247874Y9121201D02*
X12227810D01*
X12208430Y9116008D01*
X12191054Y9105976D01*
X12176867Y9091789D01*
X12166835Y9074413D01*
X12161642Y9055033D01*
Y9034969D01*
X12166835Y9015589D01*
X12176867Y8998213D01*
X12191054Y8984026D01*
X12208430Y8973994D01*
X12227810Y8968801D01*
X12247874D01*
X12267254Y8973994D01*
X12284630Y8984026D01*
X12298817Y8998213D01*
X12308849Y9015589D01*
X12314042Y9034969D01*
Y9055033D01*
X12308849Y9074413D01*
X12298817Y9091789D01*
X12284630Y9105976D01*
X12267254Y9116008D01*
X12247874Y9121201D01*
D02*
G37*
G36*
X10807498Y9032698D02*
X10792500D01*
X10778643Y9026959D01*
X10768038Y9016354D01*
X10762299Y9002498D01*
Y8987499D01*
X10768038Y8973643D01*
X10778643Y8963038D01*
X10792500Y8957299D01*
X10807498D01*
X10821354Y8963038D01*
X10831959Y8973643D01*
X10837699Y8987499D01*
Y9002498D01*
X10831959Y9016354D01*
X10821354Y9026959D01*
X10807498Y9032698D01*
D02*
G37*
G36*
X10697501D02*
X10682502D01*
X10668646Y9026959D01*
X10658041Y9016354D01*
X10652302Y9002498D01*
Y8987499D01*
X10658041Y8973643D01*
X10668646Y8963038D01*
X10682502Y8957299D01*
X10697501D01*
X10711357Y8963038D01*
X10721962Y8973643D01*
X10727701Y8987499D01*
Y9002498D01*
X10721962Y9016354D01*
X10711357Y9026959D01*
X10697501Y9032698D01*
D02*
G37*
G36*
X10587498D02*
X10572500D01*
X10558644Y9026959D01*
X10548039Y9016354D01*
X10542299Y9002498D01*
Y8987499D01*
X10548039Y8973643D01*
X10558644Y8963038D01*
X10572500Y8957299D01*
X10587498D01*
X10601354Y8963038D01*
X10611960Y8973643D01*
X10617699Y8987499D01*
Y9002498D01*
X10611960Y9016354D01*
X10601354Y9026959D01*
X10587498Y9032698D01*
D02*
G37*
G36*
X10697501Y8922701D02*
X10682502D01*
X10668646Y8916962D01*
X10658041Y8906357D01*
X10652302Y8892500D01*
Y8877502D01*
X10658041Y8863646D01*
X10668646Y8853041D01*
X10682502Y8847301D01*
X10697501D01*
X10711357Y8853041D01*
X10721962Y8863646D01*
X10727701Y8877502D01*
Y8892500D01*
X10721962Y8906357D01*
X10711357Y8916962D01*
X10697501Y8922701D01*
D02*
G37*
G36*
X10587498D02*
X10572500D01*
X10558644Y8916962D01*
X10548039Y8906357D01*
X10542299Y8892500D01*
Y8877502D01*
X10548039Y8863646D01*
X10558644Y8853041D01*
X10572500Y8847301D01*
X10587498D01*
X10601354Y8853041D01*
X10611960Y8863646D01*
X10617699Y8877502D01*
Y8892500D01*
X10611960Y8906357D01*
X10601354Y8916962D01*
X10587498Y8922701D01*
D02*
G37*
G36*
X11027497Y8812699D02*
X11012499D01*
X10998643Y8806960D01*
X10988038Y8796354D01*
X10982298Y8782498D01*
Y8767500D01*
X10988038Y8753644D01*
X10998643Y8743038D01*
X11012499Y8737299D01*
X11027497D01*
X11041354Y8743038D01*
X11051959Y8753644D01*
X11057698Y8767500D01*
Y8782498D01*
X11051959Y8796354D01*
X11041354Y8806960D01*
X11027497Y8812699D01*
D02*
G37*
G36*
X10917500D02*
X10902502D01*
X10888646Y8806960D01*
X10878040Y8796354D01*
X10872301Y8782498D01*
Y8767500D01*
X10878040Y8753644D01*
X10888646Y8743038D01*
X10902502Y8737299D01*
X10917500D01*
X10931356Y8743038D01*
X10941962Y8753644D01*
X10947701Y8767500D01*
Y8782498D01*
X10941962Y8796354D01*
X10931356Y8806960D01*
X10917500Y8812699D01*
D02*
G37*
G36*
X10587498D02*
X10572500D01*
X10558644Y8806960D01*
X10548039Y8796354D01*
X10542299Y8782498D01*
Y8767500D01*
X10548039Y8753644D01*
X10558644Y8743038D01*
X10572500Y8737299D01*
X10587498D01*
X10601354Y8743038D01*
X10611960Y8753644D01*
X10617699Y8767500D01*
Y8782498D01*
X10611960Y8796354D01*
X10601354Y8806960D01*
X10587498Y8812699D01*
D02*
G37*
G36*
X10022712Y8790940D02*
X10002648D01*
X9983268Y8785747D01*
X9965892Y8775715D01*
X9951705Y8761528D01*
X9941673Y8744152D01*
X9936480Y8724772D01*
Y8704708D01*
X9941673Y8685328D01*
X9951705Y8667952D01*
X9965892Y8653765D01*
X9983268Y8643733D01*
X10002648Y8638540D01*
X10022712D01*
X10042092Y8643733D01*
X10059468Y8653765D01*
X10073655Y8667952D01*
X10083687Y8685328D01*
X10088880Y8704708D01*
Y8724772D01*
X10083687Y8744152D01*
X10073655Y8761528D01*
X10059468Y8775715D01*
X10042092Y8785747D01*
X10022712Y8790940D01*
D02*
G37*
G36*
X11027497Y8702702D02*
X11012499D01*
X10998643Y8696962D01*
X10988038Y8686357D01*
X10982298Y8672501D01*
Y8657503D01*
X10988038Y8643646D01*
X10998643Y8633041D01*
X11012499Y8627302D01*
X11027497D01*
X11041354Y8633041D01*
X11051959Y8643646D01*
X11057698Y8657503D01*
Y8672501D01*
X11051959Y8686357D01*
X11041354Y8696962D01*
X11027497Y8702702D01*
D02*
G37*
G36*
X10917500D02*
X10902502D01*
X10888646Y8696962D01*
X10878040Y8686357D01*
X10872301Y8672501D01*
Y8657503D01*
X10878040Y8643646D01*
X10888646Y8633041D01*
X10902502Y8627302D01*
X10917500D01*
X10931356Y8633041D01*
X10941962Y8643646D01*
X10947701Y8657503D01*
Y8672501D01*
X10941962Y8686357D01*
X10931356Y8696962D01*
X10917500Y8702702D01*
D02*
G37*
G36*
X9659492Y8067040D02*
X9639428D01*
X9620048Y8061847D01*
X9602672Y8051815D01*
X9588485Y8037628D01*
X9578453Y8020252D01*
X9573260Y8000872D01*
Y7980808D01*
X9578453Y7961428D01*
X9588485Y7944052D01*
X9602672Y7929865D01*
X9620048Y7919833D01*
X9639428Y7914640D01*
X9659492D01*
X9678872Y7919833D01*
X9696248Y7929865D01*
X9710435Y7944052D01*
X9720467Y7961428D01*
X9725660Y7980808D01*
Y8000872D01*
X9720467Y8020252D01*
X9710435Y8037628D01*
X9696248Y8051815D01*
X9678872Y8061847D01*
X9659492Y8067040D01*
D02*
G37*
G36*
X12617010Y7072701D02*
X12582991D01*
X12549625Y7066065D01*
X12518196Y7053046D01*
X12489911Y7034146D01*
X12465855Y7010091D01*
X12446956Y6981805D01*
X12433937Y6950376D01*
X12427300Y6917011D01*
Y6882992D01*
X12433937Y6849627D01*
X12446956Y6818197D01*
X12465855Y6789912D01*
X12489911Y6765857D01*
X12518196Y6746957D01*
X12549625Y6733938D01*
X12582991Y6727302D01*
X12617010D01*
X12650375Y6733938D01*
X12681804Y6746957D01*
X12710090Y6765857D01*
X12734145Y6789912D01*
X12753045Y6818197D01*
X12766063Y6849627D01*
X12772700Y6882992D01*
Y6917011D01*
X12766063Y6950376D01*
X12753045Y6981805D01*
X12734145Y7010091D01*
X12710090Y7034146D01*
X12681804Y7053046D01*
X12650375Y7066065D01*
X12617010Y7072701D01*
D02*
G37*
G36*
X9617010D02*
X9582992D01*
X9549626Y7066065D01*
X9518197Y7053046D01*
X9489911Y7034146D01*
X9465856Y7010091D01*
X9446956Y6981805D01*
X9433938Y6950376D01*
X9427301Y6917011D01*
Y6882992D01*
X9433938Y6849627D01*
X9446956Y6818197D01*
X9465856Y6789912D01*
X9489911Y6765857D01*
X9518197Y6746957D01*
X9549626Y6733938D01*
X9582992Y6727302D01*
X9617010D01*
X9650376Y6733938D01*
X9681805Y6746957D01*
X9710091Y6765857D01*
X9734146Y6789912D01*
X9753046Y6818197D01*
X9766064Y6849627D01*
X9772701Y6882992D01*
Y6917011D01*
X9766064Y6950376D01*
X9753046Y6981805D01*
X9734146Y7010091D01*
X9710091Y7034146D01*
X9681805Y7053046D01*
X9650376Y7066065D01*
X9617010Y7072701D01*
D02*
G37*
%LPD*%
D35*
X9600001Y9900001D02*
D03*
X12600000D02*
D03*
Y6900001D02*
D03*
X9600001D02*
D03*
D36*
X11804000Y9511502D02*
D03*
X11296000Y9409902D02*
D03*
Y9613102D02*
D03*
D37*
X10269220Y9161780D02*
D03*
X9916160Y9149999D02*
D03*
X12237842Y9045001D02*
D03*
X10972800Y8125460D02*
D03*
X11724640Y8737600D02*
D03*
X9611360Y8438942D02*
D03*
X10040620Y9227820D02*
D03*
X9527540Y10172700D02*
D03*
X11376660Y9748520D02*
D03*
X10208260Y8420100D02*
D03*
X11990070Y9127490D02*
D03*
X11755120Y9362440D02*
D03*
X11031220Y9288780D02*
D03*
X10408920Y9179560D02*
D03*
X10144760Y9005240D02*
D03*
X10434320Y8374380D02*
D03*
X9428480Y8928100D02*
D03*
X9649460Y7990840D02*
D03*
X10012680Y8714740D02*
D03*
X9924999Y9543999D02*
D03*
X10144760Y9763760D02*
D03*
X12372340Y8808720D02*
D03*
X11298560D02*
D03*
D38*
X9545000Y9220002D02*
D03*
X9655002D02*
D03*
X9545000Y9329999D02*
D03*
X9655002D02*
D03*
X11019998Y8665002D02*
D03*
Y8554999D02*
D03*
Y8994999D02*
D03*
X10910001D02*
D03*
X11019998Y8885001D02*
D03*
X10910001D02*
D03*
X10799999Y8994999D02*
D03*
Y8774999D02*
D03*
Y8885001D02*
D03*
X11019998Y8774999D02*
D03*
X10910001Y8665002D02*
D03*
Y8554999D02*
D03*
Y8774999D02*
D03*
X10799999Y8665002D02*
D03*
Y8554999D02*
D03*
X10579999Y8994999D02*
D03*
X10690001Y8885001D02*
D03*
Y8994999D02*
D03*
Y8774999D02*
D03*
X10579999D02*
D03*
Y8885001D02*
D03*
X10690001Y8665002D02*
D03*
X10579999Y8554999D02*
D03*
X10690001D02*
D03*
X10579999Y8665002D02*
D03*
D39*
X11295197Y8470717D02*
X11562080Y8737600D01*
X10972800Y8148320D02*
X11295197Y8470717D01*
X11457757D01*
X10396581D02*
X11295197D01*
X9519920Y9019540D02*
X9785701D01*
X9916160Y9149999D01*
X9428480Y8928100D02*
X9519920Y9019540D01*
X10972800Y8125460D02*
Y8148320D01*
X11562080Y8737600D02*
X11724640D01*
X11457757Y8470717D02*
X11724640Y8737600D01*
X10255763Y8329900D02*
X10396581Y8470717D01*
X9720402Y8329900D02*
X10255763D01*
X9611360Y8438942D02*
X9720402Y8329900D01*
X9817100Y9451340D02*
X10040620Y9227820D01*
X9817100Y9451340D02*
Y10078720D01*
X9723120Y10172700D02*
X9817100Y10078720D01*
X9527540Y10172700D02*
X9723120D01*
X11376660Y9367520D02*
Y9748520D01*
X10551160Y8542020D02*
X11376660Y9367520D01*
X10330180Y8542020D02*
X10551160D01*
X10208260Y8420100D02*
X10330180Y8542020D01*
X11755120Y9362440D02*
X11990070Y9127490D01*
X10518140Y9288780D02*
X11031220D01*
X10408920Y9179560D02*
X10518140Y9288780D01*
X10144760Y9005240D02*
Y9763760D01*
X10354437Y8294497D02*
X10434320Y8374380D01*
X9549003Y8294497D02*
X10354437D01*
X9428480Y8415020D02*
X9549003Y8294497D01*
X9428480Y8415020D02*
Y8928100D01*
X9924999Y9543999D02*
X10144760Y9763760D01*
D40*
X12331700Y8849360D02*
X12372340Y8808720D01*
X11339200Y8849360D02*
X12331700D01*
X11298560Y8808720D02*
X11339200Y8849360D01*
%TF.MD5,2a288e8095eef28ddcd31cbd4f82089d*%
M02*
