%TF.GenerationSoftware,Altium Limited,Altium Designer,26.9.1 (10)*%
G04 Layer_Color=8388736*
G04 Board_Origin=0|0*
%FSLAX45Y45*%
%MOMM*%
%TF.SameCoordinates,BB43777D-D1B5-492F-AFD8-DD2008C5DB50*%
%TF.FilePolarity,Negative*%
%TF.FileFunction,Soldermask,Top*%
%TF.Part,Single*%
G01*
G75*
%TA.AperFunction,SMDPad,CuDef*%
G04:AMPARAMS|DCode=10|XSize=0.6mm|YSize=0.7mm|CornerRadius=0.075mm|HoleSize=0mm|Usage=FLASHONLY|Rotation=0.000|XOffset=0mm|YOffset=0mm|HoleType=Round|Shape=RoundedRectangle|*
%AMROUNDEDRECTD10*
21,1,0.60000,0.55000,0,0,0.0*
21,1,0.45000,0.70000,0,0,0.0*
1,1,0.15000,0.22500,-0.27500*
1,1,0.15000,-0.22500,-0.27500*
1,1,0.15000,-0.22500,0.27500*
1,1,0.15000,0.22500,0.27500*
%
%ADD10ROUNDEDRECTD10*%
%TA.AperFunction,BGAPad,CuDef*%
%ADD11C,0.86300*%
%TA.AperFunction,SMDPad,CuDef*%
%ADD12O,0.80000X0.25000*%
G04:AMPARAMS|DCode=13|XSize=0.8mm|YSize=1mm|CornerRadius=0.1mm|HoleSize=0mm|Usage=FLASHONLY|Rotation=0.000|XOffset=0mm|YOffset=0mm|HoleType=Round|Shape=RoundedRectangle|*
%AMROUNDEDRECTD13*
21,1,0.80000,0.80000,0,0,0.0*
21,1,0.60000,1.00000,0,0,0.0*
1,1,0.20000,0.30000,-0.40000*
1,1,0.20000,-0.30000,-0.40000*
1,1,0.20000,-0.30000,0.40000*
1,1,0.20000,0.30000,0.40000*
%
%ADD13ROUNDEDRECTD13*%
G04:AMPARAMS|DCode=14|XSize=1.4mm|YSize=1.7mm|CornerRadius=0.175mm|HoleSize=0mm|Usage=FLASHONLY|Rotation=90.000|XOffset=0mm|YOffset=0mm|HoleType=Round|Shape=RoundedRectangle|*
%AMROUNDEDRECTD14*
21,1,1.40000,1.35000,0,0,90.0*
21,1,1.05000,1.70000,0,0,90.0*
1,1,0.35000,0.67500,0.52500*
1,1,0.35000,0.67500,-0.52500*
1,1,0.35000,-0.67500,-0.52500*
1,1,0.35000,-0.67500,0.52500*
%
%ADD14ROUNDEDRECTD14*%
%ADD15R,1.25000X1.25000*%
G04:AMPARAMS|DCode=16|XSize=0.6mm|YSize=0.7mm|CornerRadius=0.075mm|HoleSize=0mm|Usage=FLASHONLY|Rotation=90.000|XOffset=0mm|YOffset=0mm|HoleType=Round|Shape=RoundedRectangle|*
%AMROUNDEDRECTD16*
21,1,0.60000,0.55000,0,0,90.0*
21,1,0.45000,0.70000,0,0,90.0*
1,1,0.15000,0.27500,0.22500*
1,1,0.15000,0.27500,-0.22500*
1,1,0.15000,-0.27500,-0.22500*
1,1,0.15000,-0.27500,0.22500*
%
%ADD16ROUNDEDRECTD16*%
%ADD17R,3.50000X1.25000*%
%ADD18O,0.25000X0.80000*%
%ADD19R,0.80000X0.35000*%
%ADD21R,0.65000X1.70000*%
%ADD22R,2.70000X2.60000*%
%TA.AperFunction,ConnectorPad*%
%ADD23R,1.38000X0.45000*%
%TA.AperFunction,SMDPad,CuDef*%
G04:AMPARAMS|DCode=24|XSize=1.4mm|YSize=1.7mm|CornerRadius=0.175mm|HoleSize=0mm|Usage=FLASHONLY|Rotation=0.000|XOffset=0mm|YOffset=0mm|HoleType=Round|Shape=RoundedRectangle|*
%AMROUNDEDRECTD24*
21,1,1.40000,1.35000,0,0,0.0*
21,1,1.05000,1.70000,0,0,0.0*
1,1,0.35000,0.52500,-0.67500*
1,1,0.35000,-0.52500,-0.67500*
1,1,0.35000,-0.52500,0.67500*
1,1,0.35000,0.52500,0.67500*
%
%ADD24ROUNDEDRECTD24*%
%ADD25R,5.60000X5.60000*%
G04:AMPARAMS|DCode=26|XSize=1.3mm|YSize=1.1mm|CornerRadius=0.055mm|HoleSize=0mm|Usage=FLASHONLY|Rotation=0.000|XOffset=0mm|YOffset=0mm|HoleType=Round|Shape=RoundedRectangle|*
%AMROUNDEDRECTD26*
21,1,1.30000,0.99000,0,0,0.0*
21,1,1.19000,1.10000,0,0,0.0*
1,1,0.11000,0.59500,-0.49500*
1,1,0.11000,-0.59500,-0.49500*
1,1,0.11000,-0.59500,0.49500*
1,1,0.11000,0.59500,0.49500*
%
%ADD26ROUNDEDRECTD26*%
%TA.AperFunction,ConnectorPad*%
%ADD27R,1.55000X1.42500*%
%ADD28R,1.90000X1.00000*%
%ADD29R,1.90000X1.80000*%
%ADD30R,1.30000X1.65000*%
%TA.AperFunction,SMDPad,CuDef*%
%ADD31R,1.00000X2.90000*%
%TA.AperFunction,WasherPad*%
%ADD35C,3.20000*%
%TA.AperFunction,ComponentPad*%
%ADD36C,1.06700*%
%TA.AperFunction,ViaPad*%
%ADD37C,1.27000*%
%ADD38C,0.50000*%
%TA.AperFunction,SMDPad,CuDef*%
%ADD46R,0.55320X1.05320*%
D10*
X10599999Y9275003D02*
D03*
X10499999D02*
D03*
X10724998Y9274998D02*
D03*
X10824997D02*
D03*
X11650000Y9800001D02*
D03*
X10850001Y9649998D02*
D03*
X10799999Y9400002D02*
D03*
X10825002Y8225003D02*
D03*
Y8124998D02*
D03*
Y8024998D02*
D03*
X9674997Y9600001D02*
D03*
X9774997D02*
D03*
X10725003Y8225003D02*
D03*
Y8124998D02*
D03*
Y8024998D02*
D03*
X10750001Y9649998D02*
D03*
X11725001Y8550001D02*
D03*
X9875002Y8375000D02*
D03*
X10899999Y9400002D02*
D03*
X11500002Y8550001D02*
D03*
X11400003D02*
D03*
X11625001D02*
D03*
X11550000Y9800001D02*
D03*
X9975002Y8375000D02*
D03*
D11*
X11677000Y9575002D02*
D03*
X11423000D02*
D03*
X11550000D02*
D03*
X11677000Y9448002D02*
D03*
X11550000D02*
D03*
X11423000D02*
D03*
D12*
X11139998Y9050000D02*
D03*
X10459999D02*
D03*
Y8650000D02*
D03*
X11139998Y9000002D02*
D03*
X10459999Y8699998D02*
D03*
X11139998Y8950000D02*
D03*
Y8900003D02*
D03*
Y8850000D02*
D03*
Y8800003D02*
D03*
Y8750000D02*
D03*
Y8699998D02*
D03*
Y8650000D02*
D03*
Y8599998D02*
D03*
Y8550001D02*
D03*
Y8499998D02*
D03*
X10459999D02*
D03*
Y8550001D02*
D03*
Y8599998D02*
D03*
Y8750000D02*
D03*
Y8800003D02*
D03*
Y8850000D02*
D03*
Y8900003D02*
D03*
Y8950000D02*
D03*
Y9000002D02*
D03*
D13*
X10875000Y9775002D02*
D03*
X12025000Y8550001D02*
D03*
X11874998Y8350001D02*
D03*
X11074999Y8250001D02*
D03*
X10725003Y9775002D02*
D03*
X12200001Y8699998D02*
D03*
X12049999D02*
D03*
X12175002Y8550001D02*
D03*
X11725001Y8350001D02*
D03*
X10925002Y8250001D02*
D03*
D14*
X12300001Y7385700D02*
D03*
Y7614300D02*
D03*
D15*
X11804000Y7924998D02*
D03*
X12033001D02*
D03*
X11574998D02*
D03*
D16*
X12600000Y7300001D02*
D03*
X9924999Y9274998D02*
D03*
X10300000Y9050000D02*
D03*
X9700001Y8900003D02*
D03*
X9924999Y9374998D02*
D03*
X9575002Y8900003D02*
D03*
Y8800003D02*
D03*
X12600000Y7650002D02*
D03*
X10300000Y8950000D02*
D03*
X9700001Y8799998D02*
D03*
X10300000Y8525002D02*
D03*
X9649998Y8199999D02*
D03*
X12600000Y7400000D02*
D03*
Y7549998D02*
D03*
X9649998Y8099999D02*
D03*
X10300000Y8625002D02*
D03*
Y8825001D02*
D03*
Y8725002D02*
D03*
D17*
X11804000Y7266000D02*
D03*
D18*
X11074999Y8435000D02*
D03*
X10524998Y9114998D02*
D03*
X11025002Y8435000D02*
D03*
X10575000Y9114998D02*
D03*
X10675000D02*
D03*
X10825002D02*
D03*
X10775000D02*
D03*
X10624998D02*
D03*
X10724998D02*
D03*
X10875000D02*
D03*
X10925002D02*
D03*
X10975000D02*
D03*
X11025002D02*
D03*
X11074999D02*
D03*
X10975000Y8435000D02*
D03*
X10925002D02*
D03*
X10875000D02*
D03*
X10825002D02*
D03*
X10775000D02*
D03*
X10724998D02*
D03*
X10675000D02*
D03*
X10624998D02*
D03*
X10575000D02*
D03*
X10524998D02*
D03*
D19*
X9800001Y9149999D02*
D03*
X9400002Y9300002D02*
D03*
Y9249999D02*
D03*
Y9200002D02*
D03*
Y9149999D02*
D03*
X9800001Y9349999D02*
D03*
Y9300002D02*
D03*
Y9249999D02*
D03*
Y9200002D02*
D03*
X9400002Y9349999D02*
D03*
Y9400002D02*
D03*
X9800001D02*
D03*
D21*
X10112502Y7140001D02*
D03*
X10737499D02*
D03*
X10237500D02*
D03*
X10487503D02*
D03*
X10612501D02*
D03*
X10362499D02*
D03*
D22*
X9600001Y9274998D02*
D03*
D23*
X12559000Y9045001D02*
D03*
Y8980002D02*
D03*
Y8914999D02*
D03*
Y8850000D02*
D03*
Y8785001D02*
D03*
D24*
X11914302Y8175000D02*
D03*
X11685702D02*
D03*
D25*
X10799999Y8774999D02*
D03*
D26*
X10040000Y8030002D02*
D03*
X9809998Y8219999D02*
D03*
X10040000D02*
D03*
X9809998Y8030002D02*
D03*
D27*
X12567498Y9163751D02*
D03*
Y8666251D02*
D03*
D28*
X12824998Y9070000D02*
D03*
D29*
Y8799998D02*
D03*
D30*
Y9252499D02*
D03*
Y8577499D02*
D03*
D31*
X9927499Y6860002D02*
D03*
X10922498D02*
D03*
D35*
X9600001Y9900001D02*
D03*
X12600000D02*
D03*
Y6900001D02*
D03*
X9600001D02*
D03*
D36*
X11804000Y9511502D02*
D03*
X11296000Y9409902D02*
D03*
Y9613102D02*
D03*
D37*
X10269220Y9161780D02*
D03*
X9916160Y9149999D02*
D03*
X12237842Y9045001D02*
D03*
X10972800Y8125460D02*
D03*
X11724640Y8737600D02*
D03*
X9611360Y8438942D02*
D03*
X10040620Y9227820D02*
D03*
X9527540Y10172700D02*
D03*
X11376660Y9748520D02*
D03*
X10208260Y8420100D02*
D03*
X11990070Y9127490D02*
D03*
X11755120Y9362440D02*
D03*
X11031220Y9288780D02*
D03*
X10408920Y9179560D02*
D03*
X10144760Y9005240D02*
D03*
X10434320Y8374380D02*
D03*
X9428480Y8928100D02*
D03*
X9649460Y7990840D02*
D03*
X10012680Y8714740D02*
D03*
X9924999Y9543999D02*
D03*
X10144760Y9763760D02*
D03*
X12372340Y8808720D02*
D03*
X11298560D02*
D03*
D38*
X9545000Y9220002D02*
D03*
X9655002D02*
D03*
X9545000Y9329999D02*
D03*
X9655002D02*
D03*
X11019998Y8665002D02*
D03*
Y8554999D02*
D03*
Y8994999D02*
D03*
X10910001D02*
D03*
X11019998Y8885001D02*
D03*
X10910001D02*
D03*
X10799999Y8994999D02*
D03*
Y8774999D02*
D03*
Y8885001D02*
D03*
X11019998Y8774999D02*
D03*
X10910001Y8665002D02*
D03*
Y8554999D02*
D03*
Y8774999D02*
D03*
X10799999Y8665002D02*
D03*
Y8554999D02*
D03*
X10579999Y8994999D02*
D03*
X10690001Y8885001D02*
D03*
Y8994999D02*
D03*
Y8774999D02*
D03*
X10579999D02*
D03*
Y8885001D02*
D03*
X10690001Y8665002D02*
D03*
X10579999Y8554999D02*
D03*
X10690001D02*
D03*
X10579999Y8665002D02*
D03*
D46*
X9525000Y9077498D02*
D03*
X9475003D02*
D03*
X9625000D02*
D03*
X9725000D02*
D03*
X9475003Y9472498D02*
D03*
X9525000D02*
D03*
X9575002D02*
D03*
X9625000D02*
D03*
X9675002D02*
D03*
X9725000D02*
D03*
X9575002Y9077498D02*
D03*
X9675002D02*
D03*
%TF.MD5,805484f4a610a4a58e5f5efa5aba279e*%
M02*
