%TF.GenerationSoftware,Altium Limited,Altium Designer,26.9.1 (10)*%
G04 Layer_Color=16711935*
G04 Board_Origin=0|0*
%FSLAX45Y45*%
%MOMM*%
%TF.SameCoordinates,BB43777D-D1B5-492F-AFD8-DD2008C5DB50*%
%TF.FilePolarity,Positive*%
%TF.FileFunction,Other,Mechanical_13*%
%TF.Part,Single*%
G01*
G75*
%TA.AperFunction,NonConductor*%
%ADD41C,0.25000*%
%ADD42C,0.25400*%
%ADD43C,0.20000*%
%ADD44C,0.17500*%
%ADD47C,0.10000*%
%ADD48C,0.15000*%
D41*
X10122500Y7175000D02*
G03*
X10122500Y7175000I-10000J0D01*
G01*
D42*
X9821180Y8030000D02*
G03*
X9821180Y8030000I-11180J0D01*
G01*
X11575392Y9435324D02*
X11626175D01*
X11600784D01*
Y9562283D01*
X11626175Y9587675D01*
X11651567D01*
X11676959Y9562283D01*
X11524608Y9460716D02*
X11499216Y9435324D01*
X11448433D01*
X11423041Y9460716D01*
Y9486108D01*
X11448433Y9511499D01*
X11473825D01*
X11448433D01*
X11423041Y9536891D01*
Y9562283D01*
X11448433Y9587675D01*
X11499216D01*
X11524608Y9562283D01*
D43*
X9837501Y6865000D02*
Y7264999D01*
X11012500D01*
Y6665001D02*
Y7264999D01*
X9837501Y6665001D02*
X11012500D01*
X9837501D02*
Y6865000D01*
D44*
X10434996Y9205001D02*
X10664998D01*
Y9345000D01*
X10434996D02*
X10664998D01*
X10434996Y9205001D02*
Y9345000D01*
X10659999Y9205001D02*
X10890001D01*
Y9345000D01*
X10659999D02*
X10890001D01*
X10659999Y9205001D02*
Y9345000D01*
X9854997Y9209999D02*
Y9440001D01*
Y9209999D02*
X9995002D01*
Y9440001D01*
X9854997D02*
X9995002D01*
X9609999Y9669998D02*
X9840001D01*
X9609999Y9529999D02*
Y9669998D01*
Y9529999D02*
X9840001D01*
Y9669998D01*
X9645000Y8734999D02*
Y8965001D01*
X9505000D02*
X9645000D01*
X9505000Y8734999D02*
Y8965001D01*
Y8734999D02*
X9645000D01*
X10659999Y8155000D02*
Y8295000D01*
X10890001D01*
Y8155000D02*
Y8295000D01*
X10659999Y8155000D02*
X10890001D01*
X10659999Y8055000D02*
Y8195000D01*
X10890001D01*
Y8055000D02*
Y8195000D01*
X10659999Y8055000D02*
X10890001D01*
X10659999Y7955001D02*
Y8095000D01*
X10890001D01*
Y7955001D02*
Y8095000D01*
X10659999Y7955001D02*
X10890001D01*
X11199998Y9321500D02*
X11900002D01*
X11199998D02*
Y9701500D01*
X11900002D01*
Y9321500D02*
Y9701500D01*
X10684998Y9580001D02*
Y9720001D01*
X10915000D01*
Y9580001D02*
Y9720001D01*
X10684998Y9580001D02*
X10915000D01*
X10964997Y9329999D02*
Y9469999D01*
X10734995Y9329999D02*
X10964997D01*
X10734995D02*
Y9469999D01*
X10964997D01*
X10650002Y9692498D02*
X10950001D01*
Y9857501D01*
X10650002D02*
X10950001D01*
X10650002Y9692498D02*
Y9857501D01*
X11334999Y8479998D02*
Y8619998D01*
X11565001D01*
Y8479998D02*
Y8619998D01*
X11334999Y8479998D02*
X11565001D01*
X11974998Y8617499D02*
Y8782502D01*
X12275002D01*
Y8617499D02*
Y8782502D01*
X11974998Y8617499D02*
X12275002D01*
X11789999Y8479998D02*
Y8619998D01*
X11560002Y8479998D02*
X11789999D01*
X11560002D02*
Y8619998D01*
X11789999D01*
X11949999Y8467501D02*
X12249998D01*
Y8632500D01*
X11949999D02*
X12249998D01*
X11949999Y8467501D02*
Y8632500D01*
X11485001Y9729998D02*
Y9869998D01*
X11714998D01*
Y9729998D02*
Y9869998D01*
X11485001Y9729998D02*
X11714998D01*
X11584102Y8060700D02*
X12015902D01*
Y8289300D01*
X11584102D02*
X12015902D01*
X11584102Y8060700D02*
Y8289300D01*
X12414301Y7284100D02*
Y7715900D01*
X12185701D02*
X12414301D01*
X12185701Y7284100D02*
Y7715900D01*
Y7284100D02*
X12414301D01*
X12670003Y7235002D02*
Y7464999D01*
X12529998D02*
X12670003D01*
X12529998Y7235002D02*
Y7464999D01*
Y7235002D02*
X12670003D01*
X12529998Y7715001D02*
X12670003D01*
Y7484999D02*
Y7715001D01*
X12529998Y7484999D02*
X12670003D01*
X12529998D02*
Y7715001D01*
X9580001Y8265003D02*
X9720001D01*
Y8035000D02*
Y8265003D01*
X9580001Y8035000D02*
X9720001D01*
X9580001D02*
Y8265003D01*
X9809998Y8305002D02*
Y8445002D01*
X10040000D01*
Y8305002D02*
Y8445002D01*
X9809998Y8305002D02*
X10040000D01*
X9702500Y7970002D02*
Y8315254D01*
Y7970002D02*
X9737501Y7935001D01*
X10144745D01*
Y8315254D01*
X9702500D02*
X9972243D01*
X9877247D02*
X10144745D01*
X9629999Y8734999D02*
X9769998D01*
X9629999D02*
Y8965001D01*
X9769998D01*
Y8734999D02*
Y8965001D01*
X10230002Y8459998D02*
X10370002D01*
X10230002D02*
Y8690000D01*
X10370002D01*
Y8459998D02*
Y8690000D01*
X10230002Y8885001D02*
X10370002D01*
X10230002D02*
Y9114998D01*
X10370002D01*
Y8885001D02*
Y9114998D01*
X11650000Y8432500D02*
X11949999D01*
X11650000Y8267502D02*
Y8432500D01*
Y8267502D02*
X11949999D01*
Y8432500D01*
X10230002Y8659998D02*
X10370002D01*
X10230002D02*
Y8890000D01*
X10370002D01*
Y8659998D02*
Y8890000D01*
X10850001Y8332500D02*
X11150001D01*
X10850001Y8167502D02*
Y8332500D01*
Y8167502D02*
X11150001D01*
Y8332500D01*
X10408339Y7049984D02*
X10375016D01*
X10391677D01*
Y6966677D01*
X10375016Y6950016D01*
X10358355D01*
X10341694Y6966677D01*
X10508306Y6950016D02*
X10441661D01*
X10508306Y7016661D01*
Y7033322D01*
X10491645Y7049984D01*
X10458323D01*
X10441661Y7033322D01*
D47*
X10585000Y9040000D02*
G03*
X10585000Y9040000I-50000J0D01*
G01*
X9400002Y9475003D02*
X9800001D01*
X9400002Y9074998D02*
Y9475003D01*
Y9074998D02*
X9800001D01*
Y9475003D01*
X10444998Y8419998D02*
X11154999D01*
X10444998Y9130000D02*
X11154999D01*
Y8419998D02*
Y9130000D01*
X10444998Y8419998D02*
Y9130000D01*
X12500000Y7193339D02*
Y7226661D01*
X12483339Y7210000D02*
X12516661D01*
X11293339Y8650000D02*
X11326661D01*
X11310000Y8666661D02*
Y8633339D01*
D48*
X10466694Y9225016D02*
Y9324984D01*
X10516677D01*
X10533339Y9308323D01*
Y9275000D01*
X10516677Y9258339D01*
X10466694D01*
X10500016D02*
X10533339Y9225016D01*
X10566661Y9324984D02*
X10633306D01*
Y9308323D01*
X10566661Y9241677D01*
Y9225016D01*
X10691694D02*
Y9324984D01*
X10741678D01*
X10758339Y9308323D01*
Y9275000D01*
X10741678Y9258339D01*
X10691694D01*
X10725016D02*
X10758339Y9225016D01*
X10791661Y9308323D02*
X10808323Y9324984D01*
X10841645D01*
X10858306Y9308323D01*
Y9291661D01*
X10841645Y9275000D01*
X10824984D01*
X10841645D01*
X10858306Y9258339D01*
Y9241677D01*
X10841645Y9225016D01*
X10808323D01*
X10791661Y9241677D01*
X9971022Y9341661D02*
X9987684Y9358322D01*
Y9391645D01*
X9971022Y9408306D01*
X9904377D01*
X9887716Y9391645D01*
Y9358322D01*
X9904377Y9341661D01*
X9971022Y9308339D02*
X9987684Y9291677D01*
Y9258355D01*
X9971022Y9241693D01*
X9954361D01*
X9937700Y9258355D01*
X9921039Y9241693D01*
X9904377D01*
X9887716Y9258355D01*
Y9291677D01*
X9904377Y9308339D01*
X9921039D01*
X9937700Y9291677D01*
X9954361Y9308339D01*
X9971022D01*
X9937700Y9291677D02*
Y9258355D01*
X9741661Y9553977D02*
X9758323Y9537316D01*
X9791645D01*
X9808307Y9553977D01*
Y9620622D01*
X9791645Y9637283D01*
X9758323D01*
X9741661Y9620622D01*
X9708339Y9537316D02*
X9641694D01*
Y9553977D01*
X9708339Y9620622D01*
Y9637283D01*
X9528977Y8833338D02*
X9512316Y8816677D01*
Y8783355D01*
X9528977Y8766693D01*
X9595622D01*
X9612284Y8783355D01*
Y8816677D01*
X9595622Y8833338D01*
X9512316Y8933306D02*
Y8866661D01*
X9562300D01*
X9545639Y8899984D01*
Y8916645D01*
X9562300Y8933306D01*
X9595622D01*
X9612284Y8916645D01*
Y8883323D01*
X9595622Y8866661D01*
X10716685Y8271023D02*
X10700024Y8287684D01*
X10666702D01*
X10650040Y8271023D01*
Y8204378D01*
X10666702Y8187716D01*
X10700024D01*
X10716685Y8204378D01*
X10750008Y8187716D02*
X10783331D01*
X10766670D01*
Y8287684D01*
X10750008Y8271023D01*
X10833315D02*
X10849976Y8287684D01*
X10883299D01*
X10899960Y8271023D01*
Y8254361D01*
X10883299Y8237700D01*
X10899960Y8221039D01*
Y8204378D01*
X10883299Y8187716D01*
X10849976D01*
X10833315Y8204378D01*
Y8221039D01*
X10849976Y8237700D01*
X10833315Y8254361D01*
Y8271023D01*
X10849976Y8237700D02*
X10883299D01*
X10774286Y8168123D02*
X10757624Y8184784D01*
X10724302D01*
X10707641Y8168123D01*
Y8101478D01*
X10724302Y8084816D01*
X10757624D01*
X10774286Y8101478D01*
X10807608Y8084816D02*
X10840931D01*
X10824270D01*
Y8184784D01*
X10807608Y8168123D01*
X10957560Y8184784D02*
X10924237Y8168123D01*
X10890915Y8134800D01*
Y8101478D01*
X10907576Y8084816D01*
X10940899D01*
X10957560Y8101478D01*
Y8118139D01*
X10940899Y8134800D01*
X10890915D01*
X10716685Y8071022D02*
X10700024Y8087684D01*
X10666702D01*
X10650040Y8071022D01*
Y8004377D01*
X10666702Y7987716D01*
X10700024D01*
X10716685Y8004377D01*
X10750008Y7987716D02*
X10783331D01*
X10766670D01*
Y8087684D01*
X10750008Y8071022D01*
X10833315Y8087684D02*
X10899960D01*
Y8071022D01*
X10833315Y8004377D01*
Y7987716D01*
X10741685Y9696023D02*
X10725024Y9712684D01*
X10691702D01*
X10675040Y9696023D01*
Y9629377D01*
X10691702Y9612716D01*
X10725024D01*
X10741685Y9629377D01*
X10775008Y9612716D02*
X10808331D01*
X10791670D01*
Y9712684D01*
X10775008Y9696023D01*
X10924960Y9712684D02*
X10858315D01*
Y9662700D01*
X10891637Y9679361D01*
X10908298D01*
X10924960Y9662700D01*
Y9629377D01*
X10908298Y9612716D01*
X10874976D01*
X10858315Y9629377D01*
X10933304Y9449982D02*
Y9350015D01*
X10883320D01*
X10866659Y9366676D01*
Y9399998D01*
X10883320Y9416660D01*
X10933304D01*
X10899981D02*
X10866659Y9449982D01*
X10766691D02*
X10833336D01*
X10766691Y9383337D01*
Y9366676D01*
X10783352Y9350015D01*
X10816675D01*
X10833336Y9366676D01*
X10741685Y9808323D02*
X10725024Y9824984D01*
X10691702D01*
X10675040Y9808323D01*
Y9741677D01*
X10691702Y9725016D01*
X10725024D01*
X10741685Y9741677D01*
X10775008Y9725016D02*
X10808331D01*
X10791670D01*
Y9824984D01*
X10775008Y9808323D01*
X10858315D02*
X10874976Y9824984D01*
X10908298D01*
X10924960Y9808323D01*
Y9791661D01*
X10908298Y9775000D01*
X10891637D01*
X10908298D01*
X10924960Y9758339D01*
Y9741677D01*
X10908298Y9725016D01*
X10874976D01*
X10858315Y9741677D01*
X11366694Y8612684D02*
Y8512716D01*
X11416677D01*
X11433339Y8529377D01*
Y8596022D01*
X11416677Y8612684D01*
X11366694D01*
X11533306Y8512716D02*
X11466661D01*
X11533306Y8579361D01*
Y8596022D01*
X11516645Y8612684D01*
X11483323D01*
X11466661Y8596022D01*
X12075016Y8749984D02*
X12008371D01*
Y8700000D01*
X12041693D01*
X12008371D01*
Y8650016D01*
X12108339Y8749984D02*
Y8650016D01*
X12158323D01*
X12174984Y8666678D01*
Y8683339D01*
X12158323Y8700000D01*
X12108339D01*
X12158323D01*
X12174984Y8716661D01*
Y8733323D01*
X12158323Y8749984D01*
X12108339D01*
X12208307Y8650016D02*
X12241629D01*
X12224968D01*
Y8749984D01*
X12208307Y8733323D01*
X11758306Y8599984D02*
Y8500016D01*
X11708322D01*
X11691661Y8516677D01*
Y8550000D01*
X11708322Y8566661D01*
X11758306D01*
X11724983D02*
X11691661Y8599984D01*
X11608354D02*
Y8500016D01*
X11658338Y8550000D01*
X11591693D01*
X12100000Y8583322D02*
X12083339Y8599984D01*
X12050016D01*
X12033355Y8583322D01*
Y8516677D01*
X12050016Y8500016D01*
X12083339D01*
X12100000Y8516677D01*
X12133323Y8500016D02*
X12166645D01*
X12149984D01*
Y8599984D01*
X12133323Y8583322D01*
X11516694Y9750016D02*
Y9849984D01*
X11566677D01*
X11583339Y9833322D01*
Y9800000D01*
X11566677Y9783339D01*
X11516694D01*
X11550016D02*
X11583339Y9750016D01*
X11683306Y9849984D02*
X11616661D01*
Y9800000D01*
X11649984Y9816661D01*
X11666645D01*
X11683306Y9800000D01*
Y9766677D01*
X11666645Y9750016D01*
X11633323D01*
X11616661Y9766677D01*
X11783339Y8208323D02*
X11766678Y8224984D01*
X11733355D01*
X11716694Y8208323D01*
Y8141678D01*
X11733355Y8125016D01*
X11766678D01*
X11783339Y8141678D01*
X11816661Y8208323D02*
X11833323Y8224984D01*
X11866645D01*
X11883306Y8208323D01*
Y8191661D01*
X11866645Y8175000D01*
X11849984D01*
X11866645D01*
X11883306Y8158339D01*
Y8141678D01*
X11866645Y8125016D01*
X11833323D01*
X11816661Y8141678D01*
X12266677Y7483339D02*
X12250016Y7466678D01*
Y7433355D01*
X12266677Y7416694D01*
X12333322D01*
X12349984Y7433355D01*
Y7466678D01*
X12333322Y7483339D01*
X12349984Y7566646D02*
X12250016D01*
X12300000Y7516662D01*
Y7583307D01*
X12537316Y7283355D02*
X12637284D01*
Y7333339D01*
X12620623Y7350000D01*
X12553978D01*
X12537316Y7333339D01*
Y7283355D01*
X12637284Y7383323D02*
Y7416645D01*
Y7399984D01*
X12537316D01*
X12553978Y7383323D01*
X12550016Y7666645D02*
X12649984D01*
Y7616661D01*
X12633323Y7600000D01*
X12600000D01*
X12583339Y7616661D01*
Y7666645D01*
Y7633323D02*
X12550016Y7600000D01*
Y7566677D02*
Y7533355D01*
Y7550016D01*
X12649984D01*
X12633323Y7566677D01*
X9696023Y8191653D02*
X9712684Y8208314D01*
Y8241637D01*
X9696023Y8258298D01*
X9629378D01*
X9612716Y8241637D01*
Y8208314D01*
X9629378Y8191653D01*
X9612716Y8158330D02*
Y8125008D01*
Y8141669D01*
X9712684D01*
X9696023Y8158330D01*
X9612716Y8075024D02*
Y8041701D01*
Y8058362D01*
X9712684D01*
X9696023Y8075024D01*
X9866685Y8421023D02*
X9850024Y8437684D01*
X9816702D01*
X9800040Y8421023D01*
Y8354377D01*
X9816702Y8337716D01*
X9850024D01*
X9866685Y8354377D01*
X9900008Y8337716D02*
X9933331D01*
X9916670D01*
Y8437684D01*
X9900008Y8421023D01*
X10049960Y8337716D02*
X9983315D01*
X10049960Y8404361D01*
Y8421023D01*
X10033298Y8437684D01*
X9999976D01*
X9983315Y8421023D01*
X9858355Y8174984D02*
X9925000Y8075016D01*
Y8174984D02*
X9858355Y8075016D01*
X9958323D02*
X9991645D01*
X9974984D01*
Y8174984D01*
X9958323Y8158323D01*
X9653977Y8833338D02*
X9637315Y8816677D01*
Y8783355D01*
X9653977Y8766693D01*
X9720622D01*
X9737283Y8783355D01*
Y8816677D01*
X9720622Y8833338D01*
X9637315Y8933306D02*
X9653977Y8899984D01*
X9687299Y8866661D01*
X9720622D01*
X9737283Y8883323D01*
Y8916645D01*
X9720622Y8933306D01*
X9703961D01*
X9687299Y8916645D01*
Y8866661D01*
X10253977Y8516686D02*
X10237316Y8500024D01*
Y8466702D01*
X10253977Y8450041D01*
X10320622D01*
X10337284Y8466702D01*
Y8500024D01*
X10320622Y8516686D01*
X10337284Y8550008D02*
Y8583331D01*
Y8566670D01*
X10237316D01*
X10253977Y8550008D01*
Y8633315D02*
X10237316Y8649976D01*
Y8683299D01*
X10253977Y8699960D01*
X10320622D01*
X10337284Y8683299D01*
Y8649976D01*
X10320622Y8633315D01*
X10253977D01*
X10241677Y8891685D02*
X10225016Y8875024D01*
Y8841702D01*
X10241677Y8825040D01*
X10308322D01*
X10324984Y8841702D01*
Y8875024D01*
X10308322Y8891685D01*
X10324984Y8925008D02*
Y8958331D01*
Y8941669D01*
X10225016D01*
X10241677Y8925008D01*
X10324984Y9058298D02*
X10225016D01*
X10275000Y9008314D01*
Y9074959D01*
X11816661Y8316677D02*
X11833322Y8300016D01*
X11866645D01*
X11883306Y8316677D01*
Y8383322D01*
X11866645Y8399983D01*
X11833322D01*
X11816661Y8383322D01*
X11716693Y8399983D02*
X11783338D01*
X11716693Y8333338D01*
Y8316677D01*
X11733354Y8300016D01*
X11766677D01*
X11783338Y8316677D01*
X10349984Y8691694D02*
X10250016D01*
Y8741677D01*
X10266677Y8758339D01*
X10300000D01*
X10316661Y8741677D01*
Y8691694D01*
Y8725016D02*
X10349984Y8758339D01*
X10250016Y8858306D02*
X10266677Y8824984D01*
X10300000Y8791661D01*
X10333322D01*
X10349984Y8808323D01*
Y8841645D01*
X10333322Y8858306D01*
X10316661D01*
X10300000Y8841645D01*
Y8791661D01*
X11016661Y8216677D02*
X11033322Y8200016D01*
X11066645D01*
X11083306Y8216677D01*
Y8283323D01*
X11066645Y8299984D01*
X11033322D01*
X11016661Y8283323D01*
X10983338D02*
X10966677Y8299984D01*
X10933354D01*
X10916693Y8283323D01*
Y8216677D01*
X10933354Y8200016D01*
X10966677D01*
X10983338Y8216677D01*
Y8233339D01*
X10966677Y8250000D01*
X10916693D01*
%TF.MD5,7874d201fbd416fa2ae048cdab8ea0dc*%
M02*
