%TF.GenerationSoftware,Altium Limited,Altium Designer,26.9.1 (10)*%
G04 Layer_Color=16711935*
G04 Board_Origin=0|0*
%FSLAX45Y45*%
%MOMM*%
%TF.SameCoordinates,BB43777D-D1B5-492F-AFD8-DD2008C5DB50*%
%TF.FilePolarity,Positive*%
%TF.FileFunction,Other,Top_Assembly*%
%TF.Part,Single*%
G01*
G75*
%TA.AperFunction,NonConductor*%
%ADD43C,0.20000*%
G36*
X12740418Y8982648D02*
X12690347D01*
X12690431Y8982481D01*
X12690764Y8982148D01*
X12691347Y8981481D01*
X12692014Y8980648D01*
X12692847Y8979565D01*
X12693763Y8978232D01*
X12694763Y8976816D01*
X12695763Y8975150D01*
Y8975066D01*
X12695846Y8974983D01*
X12696013Y8974733D01*
X12696179Y8974400D01*
X12696679Y8973483D01*
X12697262Y8972400D01*
X12697929Y8971151D01*
X12698595Y8969734D01*
X12699262Y8968318D01*
X12699845Y8966902D01*
X12692180D01*
Y8966985D01*
X12692014Y8967235D01*
X12691847Y8967568D01*
X12691597Y8967985D01*
X12691347Y8968568D01*
X12690931Y8969235D01*
X12690098Y8970817D01*
X12689014Y8972567D01*
X12687682Y8974567D01*
X12686265Y8976483D01*
X12684682Y8978399D01*
X12684599Y8978482D01*
X12684516Y8978649D01*
X12684266Y8978899D01*
X12683932Y8979232D01*
X12683099Y8980065D01*
X12681933Y8981148D01*
X12680683Y8982231D01*
X12679184Y8983398D01*
X12677684Y8984481D01*
X12676101Y8985397D01*
Y8990479D01*
X12740418D01*
Y8982648D01*
D02*
G37*
G36*
X12722006Y8950156D02*
X12722756D01*
X12723672Y8950073D01*
X12724589Y8949989D01*
X12726588Y8949740D01*
X12728671Y8949406D01*
X12730671Y8948906D01*
X12731670Y8948573D01*
X12732503Y8948240D01*
X12732587D01*
X12732670Y8948157D01*
X12732920Y8948073D01*
X12733253Y8947907D01*
X12734003Y8947407D01*
X12735003Y8946740D01*
X12736086Y8945907D01*
X12737169Y8944824D01*
X12738252Y8943574D01*
X12739252Y8942075D01*
Y8941992D01*
X12739335Y8941908D01*
X12739418Y8941658D01*
X12739585Y8941325D01*
X12740001Y8940492D01*
X12740335Y8939242D01*
X12740751Y8937826D01*
X12741168Y8936160D01*
X12741418Y8934243D01*
X12741501Y8932161D01*
Y8931328D01*
X12741418Y8930744D01*
X12741334Y8930078D01*
X12741251Y8929245D01*
X12741084Y8928328D01*
X12740918Y8927412D01*
X12740335Y8925329D01*
X12739918Y8924246D01*
X12739418Y8923163D01*
X12738918Y8922080D01*
X12738252Y8921080D01*
X12737502Y8920164D01*
X12736669Y8919247D01*
X12736586Y8919164D01*
X12736419Y8919081D01*
X12736169Y8918831D01*
X12735753Y8918581D01*
X12735253Y8918248D01*
X12734669Y8917831D01*
X12733920Y8917414D01*
X12733087Y8916998D01*
X12732087Y8916665D01*
X12731004Y8916248D01*
X12729837Y8915915D01*
X12728588Y8915582D01*
X12727171Y8915332D01*
X12725672Y8915082D01*
X12724089Y8914998D01*
X12722339D01*
X12721256Y8922663D01*
X12721340D01*
X12721589D01*
X12721923D01*
X12722423Y8922746D01*
X12723006Y8922830D01*
X12723672Y8922913D01*
X12725255Y8923080D01*
X12726921Y8923413D01*
X12728588Y8923913D01*
X12730087Y8924496D01*
X12730671Y8924913D01*
X12731254Y8925329D01*
X12731337Y8925412D01*
X12731670Y8925829D01*
X12732087Y8926329D01*
X12732587Y8927162D01*
X12733087Y8928078D01*
X12733503Y8929245D01*
X12733836Y8930661D01*
X12733920Y8932161D01*
Y8932661D01*
X12733836Y8933327D01*
X12733753Y8934077D01*
X12733586Y8934910D01*
X12733336Y8935826D01*
X12733003Y8936743D01*
X12732503Y8937659D01*
X12732420Y8937743D01*
X12732253Y8938076D01*
X12731920Y8938409D01*
X12731420Y8938909D01*
X12730837Y8939492D01*
X12730171Y8939992D01*
X12729421Y8940492D01*
X12728504Y8940825D01*
X12728421Y8940908D01*
X12728005Y8940992D01*
X12727421Y8941158D01*
X12726588Y8941325D01*
X12725422Y8941492D01*
X12724089Y8941575D01*
X12722423Y8941742D01*
X12720506D01*
X12676351D01*
Y8950239D01*
X12720007D01*
X12720090D01*
X12720340D01*
X12720756D01*
X12721340D01*
X12722006Y8950156D01*
D02*
G37*
G36*
X11869149Y7587003D02*
X11832158D01*
X11832075D01*
X11831825D01*
X11831325D01*
X11830825D01*
X11830076Y7586920D01*
X11829326D01*
X11828409Y7586836D01*
X11827493D01*
X11825493Y7586670D01*
X11823411Y7586337D01*
X11821495Y7586003D01*
X11820661Y7585753D01*
X11819828Y7585503D01*
X11819745D01*
X11819662Y7585420D01*
X11819162Y7585170D01*
X11818495Y7584837D01*
X11817579Y7584254D01*
X11816662Y7583504D01*
X11815579Y7582588D01*
X11814663Y7581505D01*
X11813747Y7580172D01*
Y7580088D01*
X11813663Y7580005D01*
X11813413Y7579505D01*
X11813080Y7578672D01*
X11812747Y7577589D01*
X11812330Y7576256D01*
X11811997Y7574673D01*
X11811747Y7572923D01*
X11811664Y7570924D01*
Y7570007D01*
X11811747Y7569424D01*
X11811830Y7568674D01*
X11811914Y7567758D01*
X11811997Y7566758D01*
X11812164Y7565759D01*
X11812663Y7563592D01*
X11813413Y7561343D01*
X11813913Y7560343D01*
X11814496Y7559344D01*
X11815079Y7558427D01*
X11815829Y7557594D01*
X11815913Y7557511D01*
X11816079Y7557427D01*
X11816329Y7557261D01*
X11816662Y7556927D01*
X11817162Y7556678D01*
X11817829Y7556344D01*
X11818579Y7555928D01*
X11819495Y7555594D01*
X11820495Y7555178D01*
X11821661Y7554845D01*
X11822994Y7554511D01*
X11824494Y7554178D01*
X11826160Y7553928D01*
X11827993Y7553762D01*
X11829992Y7553678D01*
X11832158Y7553595D01*
X11869149D01*
Y7545097D01*
X11832075D01*
X11831992D01*
X11831659D01*
X11831159D01*
X11830492D01*
X11829659Y7545180D01*
X11828743D01*
X11827660Y7545264D01*
X11826577Y7545347D01*
X11824077Y7545680D01*
X11821495Y7546014D01*
X11818995Y7546597D01*
X11817829Y7546930D01*
X11816746Y7547347D01*
X11816662D01*
X11816496Y7547430D01*
X11816163Y7547597D01*
X11815829Y7547763D01*
X11815329Y7548013D01*
X11814746Y7548346D01*
X11813497Y7549179D01*
X11811997Y7550263D01*
X11810497Y7551596D01*
X11808914Y7553262D01*
X11808165Y7554261D01*
X11807498Y7555261D01*
Y7555345D01*
X11807331Y7555511D01*
X11807165Y7555844D01*
X11806915Y7556261D01*
X11806665Y7556844D01*
X11806415Y7557511D01*
X11806082Y7558344D01*
X11805749Y7559260D01*
X11805415Y7560260D01*
X11805082Y7561426D01*
X11804832Y7562593D01*
X11804582Y7563926D01*
X11804332Y7565342D01*
X11804166Y7566842D01*
X11804082Y7568508D01*
X11803999Y7570174D01*
Y7571007D01*
X11804082Y7571674D01*
Y7572424D01*
X11804166Y7573340D01*
X11804249Y7574340D01*
X11804416Y7575423D01*
X11804749Y7577755D01*
X11805332Y7580172D01*
X11806082Y7582671D01*
X11807082Y7584920D01*
Y7585004D01*
X11807248Y7585170D01*
X11807415Y7585503D01*
X11807665Y7585837D01*
X11808331Y7586836D01*
X11809331Y7588086D01*
X11810581Y7589419D01*
X11812164Y7590752D01*
X11813913Y7592002D01*
X11815996Y7593085D01*
X11816079D01*
X11816246Y7593168D01*
X11816579Y7593335D01*
X11817079Y7593418D01*
X11817662Y7593668D01*
X11818412Y7593835D01*
X11819245Y7594085D01*
X11820245Y7594251D01*
X11821328Y7594501D01*
X11822494Y7594751D01*
X11823827Y7594918D01*
X11825244Y7595084D01*
X11826826Y7595251D01*
X11828493Y7595418D01*
X11830242Y7595501D01*
X11832075D01*
X11869149D01*
Y7587003D01*
D02*
G37*
G36*
X11853320Y7528018D02*
X11853486Y7527768D01*
X11853653Y7527435D01*
X11853903Y7527018D01*
X11854153Y7526435D01*
X11854569Y7525769D01*
X11855403Y7524186D01*
X11856486Y7522436D01*
X11857819Y7520437D01*
X11859235Y7518521D01*
X11860818Y7516604D01*
X11860901Y7516521D01*
X11860984Y7516355D01*
X11861234Y7516105D01*
X11861568Y7515771D01*
X11862401Y7514938D01*
X11863567Y7513855D01*
X11864817Y7512772D01*
X11866316Y7511606D01*
X11867816Y7510523D01*
X11869399Y7509606D01*
Y7504524D01*
X11805082D01*
Y7512356D01*
X11855153D01*
X11855069Y7512522D01*
X11854736Y7512855D01*
X11854153Y7513522D01*
X11853486Y7514355D01*
X11852653Y7515438D01*
X11851737Y7516771D01*
X11850737Y7518187D01*
X11849737Y7519854D01*
Y7519937D01*
X11849654Y7520020D01*
X11849487Y7520270D01*
X11849321Y7520603D01*
X11848821Y7521520D01*
X11848238Y7522603D01*
X11847571Y7523853D01*
X11846905Y7525269D01*
X11846238Y7526685D01*
X11845655Y7528102D01*
X11853320D01*
Y7528018D01*
D02*
G37*
D43*
X12444999Y8485002D02*
X13037997D01*
Y9345000D01*
X12444999D02*
X13037997D01*
X12444999Y8485002D02*
Y9345000D01*
X11468750Y7985216D02*
X12139249D01*
X11468750Y7205787D02*
Y7985216D01*
Y7205787D02*
X12139249D01*
Y7985216D01*
%TF.MD5,154207d64e948f00c16ebf175ccf74eb*%
M02*
